<svg width="14" height="16" viewBox="0 0 14 16" fill="none" xmlns="http://www.w3.org/2000/svg">
<g clip-path="url(#clip0_248_1253)">
<path d="M13.1918 1.51696L12.5366 0.759821C12.5119 0.73125 12.481 0.71875 12.4485 0.71875C12.4161 0.71875 12.3852 0.733036 12.3604 0.759821L11.1844 2.11875C10.6732 1.71849 10.0697 1.50508 9.45213 1.50625C8.66092 1.50625 7.86971 1.85446 7.26549 2.55268L5.6908 4.37232C5.66779 4.39917 5.65488 4.43543 5.65488 4.47321C5.65488 4.511 5.66779 4.54726 5.6908 4.57411L9.88946 9.42589C9.91418 9.45446 9.94509 9.46696 9.97754 9.46696C10.0084 9.46696 10.0409 9.45268 10.0656 9.42589L11.6403 7.60625C12.705 6.37411 12.8302 4.46875 12.0158 3.07946L13.1918 1.72054C13.2397 1.66339 13.2397 1.57232 13.1918 1.51696ZM10.8955 6.74732L9.97754 7.80804L7.09087 4.47232L8.00879 3.41161C8.39358 2.96696 8.90663 2.72054 9.45213 2.72054C9.99763 2.72054 10.5091 2.96518 10.8955 3.41161C11.2803 3.85625 11.4935 4.44911 11.4935 5.07946C11.4935 5.70982 11.2803 6.30089 10.8955 6.74732ZM7.95625 8.62232C7.93302 8.59574 7.90164 8.58082 7.86894 8.58082C7.83624 8.58082 7.80486 8.59574 7.78163 8.62232L6.75244 9.81161L5.35701 8.19911L6.38774 7.00804C6.43565 6.95268 6.43565 6.86161 6.38774 6.80625L5.82524 6.15625C5.802 6.12966 5.77063 6.11475 5.73793 6.11475C5.70523 6.11475 5.67385 6.12966 5.65062 6.15625L4.61988 7.34732L3.95539 6.57946C3.94385 6.56612 3.93011 6.55561 3.91497 6.54855C3.89984 6.54149 3.88362 6.53804 3.86731 6.53839C3.8364 6.53839 3.80395 6.55268 3.77922 6.57946L2.20608 8.39911C1.14134 9.63125 1.01617 11.5366 1.83056 12.9259L0.654566 14.2848C0.631559 14.3117 0.618652 14.3479 0.618652 14.3857C0.618652 14.4235 0.631559 14.4598 0.654566 14.4866L1.30979 15.2438C1.33451 15.2723 1.36542 15.2848 1.39787 15.2848C1.43032 15.2848 1.46123 15.2705 1.48595 15.2438L2.66195 13.8848C3.18273 14.2938 3.7885 14.4973 4.39426 14.4973C5.18547 14.4973 5.97668 14.1491 6.58091 13.4509L8.1556 11.6313C8.2035 11.5759 8.2035 11.4848 8.1556 11.4295L7.49111 10.6616L8.52184 9.47054C8.56975 9.41518 8.56975 9.32411 8.52184 9.26875L7.95625 8.62232ZM5.83606 12.5938C5.64692 12.8134 5.42199 12.9876 5.17425 13.1062C4.92651 13.2248 4.66088 13.2855 4.39272 13.2848C3.84722 13.2848 3.33571 13.0402 2.94938 12.5938C2.75928 12.3752 2.60854 12.1153 2.50589 11.829C2.40324 11.5427 2.35071 11.2358 2.35134 10.9259C2.35134 10.2955 2.56305 9.70446 2.94938 9.25804L3.86731 8.19732L6.75398 11.533L5.83606 12.5938Z" fill="#8C8C8C"/>
</g>
<defs>
<clipPath id="clip0_248_1253">
<rect width="13.8462" height="16" fill="white"/>
</clipPath>
</defs>
</svg>
