<svg width="16" height="16" viewBox="0 0 16 16" fill="none" xmlns="http://www.w3.org/2000/svg">
<path d="M8 1.33333C6.16 1.33333 4.66667 2.82667 4.66667 4.66667V7.33333C4.66667 7.84 4.48667 8.28 4.18 8.62667L3.4 9.46667C3.06667 9.84667 3.33333 10.4444 3.83333 10.4444H12.1667C12.6667 10.4444 12.9333 9.84667 12.6 9.46667L11.82 8.62667C11.5133 8.28 11.3333 7.84 11.3333 7.33333V4.66667C11.3333 2.82667 9.84 1.33333 8 1.33333Z" stroke="#2E2F33" stroke-width="1.33333" stroke-linecap="round" stroke-linejoin="round" stroke-opacity="0.88"/>
<path d="M6 10.4444V11C6 11.92 6.74667 12.6667 7.66667 12.6667H8.33333C9.25333 12.6667 10 11.92 10 11V10.4444" stroke="#2E2F33" stroke-width="1.33333" stroke-linecap="round" stroke-linejoin="round" stroke-opacity="0.88"/>
</svg>

