<svg width="14" height="16" viewBox="0 0 14 16" fill="none" xmlns="http://www.w3.org/2000/svg">
<g clip-path="url(#clip0_248_1252)">
<path d="M12.981 7.99845H12.1156C12.0476 7.99845 11.9919 8.06273 11.9919 8.14131V13.8556H1.85458V2.14131H6.79964C6.86763 2.14131 6.92326 2.07702 6.92326 1.99845V0.998448C6.92326 0.919877 6.86763 0.855591 6.79964 0.855591H1.23645C0.962926 0.855591 0.741943 1.11095 0.741943 1.42702V14.5699C0.741943 14.8859 0.962926 15.1413 1.23645 15.1413H12.6101C12.8836 15.1413 13.1046 14.8859 13.1046 14.5699V8.14131C13.1046 8.06273 13.049 7.99845 12.981 7.99845Z" fill="#8C8C8C"/>
<path d="M4.5109 8.40738L4.48154 10.5306C4.47999 10.6895 4.59126 10.8199 4.72879 10.8199H4.73497L6.55846 10.7681C6.58937 10.7663 6.62028 10.752 6.64191 10.727L13.0689 3.3163C13.1168 3.26095 13.1168 3.16988 13.0689 3.11452L11.1481 0.896662C11.1234 0.868091 11.0925 0.855591 11.06 0.855591C11.0276 0.855591 10.9966 0.869877 10.9719 0.896662L4.54644 8.30738C4.52412 8.33435 4.51143 8.37006 4.5109 8.40738ZM5.49219 8.8288L11.06 2.40916L11.7585 3.21452L6.18758 9.63773L5.48137 9.65738L5.49219 8.8288Z" fill="#8C8C8C"/>
</g>
<defs>
<clipPath id="clip0_248_1252">
<rect width="13.8462" height="16" fill="white"/>
</clipPath>
</defs>
</svg>
