<svg width="17" height="16" viewBox="0 0 17 16" fill="none" xmlns="http://www.w3.org/2000/svg">
<path d="M15.4678 6.34146H13.5343V3.57073C13.5343 3.13902 13.2783 2.79024 12.9614 2.79024H7.32212L5.22216 0.0536585C5.19544 0.0195799 5.16029 0.000427553 5.12369 0H0.57288C0.256006 0 0 0.34878 0 0.780488V15.2195C0 15.6512 0.256006 16 0.57288 16H13.0688C13.3015 16 13.5128 15.8073 13.6005 15.5122L15.9995 7.41463C16.0263 7.32195 16.0406 7.22195 16.0406 7.12195C16.0406 6.69024 15.7846 6.34146 15.4678 6.34146ZM1.28898 1.7561H4.6636L6.80474 4.54634H12.2453V6.34146H3.11503C2.8823 6.34146 2.67105 6.53415 2.58333 6.82927L1.28898 11.2V1.7561ZM12.6624 14.2439H1.70074L3.55006 8H14.5135L12.6624 14.2439Z" fill="#8C8C8C" fill-opacity="0.85"/>
</svg>
