<svg width="13" height="18" viewBox="0 0 13 18" fill="none" xmlns="http://www.w3.org/2000/svg">
<path d="M12.1237 7.04352C12.1237 5.17546 11.485 3.38391 10.3483 2.063C9.21154 0.742082 7.66977 0 6.06216 0C4.45456 0 2.91279 0.742082 1.77604 2.063C0.639293 3.38391 0.000673813 5.17546 0.000673813 7.04352C-0.0147542 8.23717 0.234989 9.41527 0.725778 10.464C1.21657 11.5128 1.93182 12.3967 2.80243 13.0305L3.40184 15.1201C3.44703 15.2755 3.53311 15.4105 3.64792 15.506C3.76273 15.6015 3.90047 15.6527 4.04167 15.6523H8.08266C8.22386 15.6527 8.3616 15.6015 8.47641 15.506C8.59122 15.4105 8.6773 15.2755 8.72249 15.1201L9.3219 13.0305C10.1925 12.3967 10.9078 11.5128 11.3986 10.464C11.8893 9.41527 12.1391 8.23717 12.1237 7.04352ZM7.59774 14.087H4.52659L4.04167 12.2714L3.99452 12.1775C3.99452 12.1227 3.94738 12.0679 3.92044 12.0209L3.80594 11.9114C3.78294 11.8856 3.75817 11.862 3.73186 11.8409C2.99668 11.3687 2.38621 10.6725 1.96612 9.82717C1.54603 8.98187 1.33221 8.01948 1.34767 7.04352C1.34767 5.59058 1.84438 4.19716 2.72852 3.16978C3.61265 2.1424 4.8118 1.56523 6.06216 1.56523C7.31253 1.56523 8.51168 2.1424 9.39581 3.16978C10.28 4.19716 10.7767 5.59058 10.7767 7.04352C10.7954 8.01554 10.5867 8.97525 10.1727 9.82018C9.75872 10.6651 9.15506 11.3635 8.42615 11.8409C8.40066 11.8602 8.37793 11.8839 8.3588 11.9114C8.31558 11.9435 8.27499 11.9802 8.23757 12.0209C8.23757 12.0679 8.19042 12.1227 8.16348 12.1775L8.11634 12.2714L7.59774 14.087Z" fill="#8C8C8C" fill-opacity="0.88"/>
<path d="M8.08267 16.4348H4.04169C3.86306 16.4348 3.69176 16.5173 3.56545 16.664C3.43914 16.8108 3.36819 17.0099 3.36819 17.2174C3.36819 17.425 3.43914 17.624 3.56545 17.7708C3.69176 17.9176 3.86306 18 4.04169 18H8.08267C8.2613 18 8.43261 17.9176 8.55891 17.7708C8.68522 17.624 8.75617 17.425 8.75617 17.2174C8.75617 17.0099 8.68522 16.8108 8.55891 16.664C8.43261 16.5173 8.2613 16.4348 8.08267 16.4348Z" fill="#8C8C8C" fill-opacity="0.88"/>
<path d="M9.42964 7.82616C9.60826 7.82616 9.77957 7.74371 9.90588 7.59694C10.0322 7.45017 10.1031 7.25111 10.1031 7.04355C10.0927 5.95852 9.77206 4.90833 9.1917 4.05826C8.61133 3.20818 7.80418 2.60649 6.89729 2.34787C6.71866 2.29702 6.52997 2.3307 6.37272 2.44151C6.21547 2.55232 6.10254 2.73118 6.05878 2.93874C6.01502 3.14631 6.04401 3.36557 6.13937 3.54829C6.23473 3.73102 6.38865 3.86224 6.56727 3.9131C7.17419 4.09007 7.71546 4.49071 8.11004 5.05504C8.50463 5.61936 8.7313 6.31701 8.75614 7.04355C8.75614 7.25111 8.8271 7.45017 8.95341 7.59694C9.07971 7.74371 9.25102 7.82616 9.42964 7.82616Z" fill="#8C8C8C" fill-opacity="0.88"/>
</svg>
