<svg width="18" height="18" viewBox="0 0 18 18" fill="none" xmlns="http://www.w3.org/2000/svg">
<g clip-path="url(#clip0_248_4490)">
<path d="M17.2926 11.2872L15.9768 10.1622C16.0391 9.78047 16.0712 9.39074 16.0712 9.001C16.0712 8.61127 16.0391 8.22154 15.9768 7.83984L17.2926 6.71484C17.3919 6.62988 17.4629 6.51671 17.4963 6.3904C17.5297 6.26408 17.5238 6.1306 17.4795 6.0077L17.4614 5.95547C17.0991 4.94302 16.5567 4.00447 15.8603 3.18516L15.8241 3.14297C15.7396 3.04363 15.627 2.97222 15.5012 2.93815C15.3753 2.90408 15.242 2.90895 15.119 2.95212L13.4857 3.5327C12.883 3.0385 12.2101 2.64877 11.4828 2.37556L11.1674 0.667969C11.1436 0.539482 11.0813 0.421277 10.9887 0.329058C10.8961 0.236839 10.7777 0.174971 10.6491 0.151674L10.5949 0.141629C9.54822 -0.0472098 8.44733 -0.0472098 7.40068 0.141629L7.34644 0.151674C7.21786 0.174971 7.09941 0.236839 7.00683 0.329058C6.91426 0.421277 6.85193 0.539482 6.82813 0.667969L6.51072 2.38359C5.78929 2.65686 5.11746 3.04639 4.52188 3.53672L2.87657 2.95212C2.75356 2.90861 2.62021 2.90357 2.49426 2.93766C2.36831 2.97174 2.25571 3.04335 2.17144 3.14297L2.13528 3.18516C1.43968 4.00505 0.897325 4.94344 0.534159 5.95547L0.516079 6.0077C0.425677 6.25882 0.500008 6.54007 0.702909 6.71484L2.03483 7.8519C1.97255 8.22958 1.94242 8.61529 1.94242 8.99899C1.94242 9.38471 1.97255 9.77042 2.03483 10.1461L0.702909 11.2831C0.60366 11.3681 0.532625 11.4813 0.499252 11.6076C0.465879 11.7339 0.471748 11.8674 0.516079 11.9903L0.534159 12.0425C0.897775 13.055 1.43617 13.9892 2.13528 14.8128L2.17144 14.855C2.25592 14.9544 2.36852 15.0258 2.4944 15.0598C2.62027 15.0939 2.75352 15.089 2.87657 15.0459L4.52188 14.4613C5.12054 14.9535 5.78952 15.3432 6.51072 15.6144L6.82813 17.33C6.85193 17.4585 6.91426 17.5767 7.00683 17.6689C7.09941 17.7612 7.21786 17.823 7.34644 17.8463L7.40068 17.8564C8.45695 18.0462 9.53861 18.0462 10.5949 17.8564L10.6491 17.8463C10.7777 17.823 10.8961 17.7612 10.9887 17.6689C11.0813 17.5767 11.1436 17.4585 11.1674 17.33L11.4828 15.6224C12.2098 15.3499 12.8865 14.9589 13.4857 14.4653L15.119 15.0459C15.242 15.0894 15.3753 15.0944 15.5013 15.0603C15.6272 15.0262 15.7398 14.9546 15.8241 14.855L15.8603 14.8128C16.5594 13.9872 17.0978 13.055 17.4614 12.0425L17.4795 11.9903C17.5699 11.7432 17.4955 11.4619 17.2926 11.2872ZM14.5505 8.0769C14.6007 8.38025 14.6268 8.69163 14.6268 9.00301C14.6268 9.3144 14.6007 9.62578 14.5505 9.92913L14.4179 10.7347L15.9185 12.0184C15.691 12.5425 15.4039 13.0387 15.0627 13.497L13.1984 12.836L12.5676 13.3544C12.0875 13.7481 11.5531 14.0575 10.9746 14.2744L10.2092 14.5617L9.84956 16.5104C9.28218 16.5747 8.70935 16.5747 8.14197 16.5104L7.78237 14.5577L7.023 14.2664C6.45045 14.0494 5.91809 13.7401 5.44197 13.3483L4.81117 12.828L2.93483 13.495C2.59331 13.0349 2.30804 12.5387 2.07903 12.0164L3.59577 10.7206L3.46519 9.91708C3.41697 9.61775 3.39086 9.30837 3.39086 9.00301C3.39086 8.69565 3.41496 8.38828 3.46519 8.08895L3.59577 7.28538L2.07903 5.98962C2.30603 5.46529 2.59331 4.97109 2.93483 4.51105L4.81117 5.17801L5.44197 4.6577C5.91809 4.26596 6.45045 3.95658 7.023 3.73962L7.78438 3.45234L8.14398 1.49967C8.70849 1.43538 9.28505 1.43538 9.85157 1.49967L10.2112 3.44833L10.9766 3.7356C11.5531 3.95257 12.0895 4.26194 12.5697 4.65569L13.2005 5.174L15.0647 4.51306C15.4063 4.9731 15.6915 5.46931 15.9205 5.99163L14.4199 7.27533L14.5505 8.0769ZM8.99978 5.26641C7.04711 5.26641 5.46407 6.84944 5.46407 8.80212C5.46407 10.7548 7.04711 12.3378 8.99978 12.3378C10.9525 12.3378 12.5355 10.7548 12.5355 8.80212C12.5355 6.84944 10.9525 5.26641 8.99978 5.26641ZM10.5909 10.3932C10.3822 10.6025 10.1342 10.7684 9.86111 10.8815C9.58805 10.9946 9.29533 11.0526 8.99978 11.0521C8.39912 11.0521 7.83461 10.8171 7.40871 10.3932C7.19943 10.1845 7.03347 9.9365 6.92039 9.66345C6.8073 9.39039 6.74932 9.09767 6.74978 8.80212C6.74978 8.20145 6.98483 7.63694 7.40871 7.21105C7.83461 6.78516 8.39912 6.55212 8.99978 6.55212C9.60045 6.55212 10.165 6.78516 10.5909 7.21105C10.8001 7.41973 10.9661 7.66774 11.0792 7.94079C11.1923 8.21385 11.2502 8.50657 11.2498 8.80212C11.2498 9.40279 11.0147 9.9673 10.5909 10.3932Z" fill="#2E2F33" fill-opacity="0.88"/>
</g>
<defs>
<clipPath id="clip0_248_4490">
<rect width="18" height="18" fill="white"/>
</clipPath>
</defs>
</svg>
