<svg width="178" height="81" viewBox="0 0 178 81" fill="none" xmlns="http://www.w3.org/2000/svg">
<g clip-path="url(#clip0_576_1237)">
<path d="M118.5 40.387C118.5 40.2949 118.5 40.1903 118.496 40.0689C118.492 39.7299 118.483 39.3491 118.475 38.9431C118.441 37.7754 118.383 36.6119 118.291 35.5153C118.165 34.0045 117.981 32.7447 117.73 31.7988C117.465 30.8117 116.945 29.9115 116.224 29.188C115.502 28.4646 114.602 27.9433 113.616 27.6763C112.431 27.3583 110.113 27.1616 106.848 27.0402C105.295 26.9816 103.634 26.9439 101.972 26.923C101.391 26.9146 100.851 26.9104 100.365 26.9062H99.1348C98.6493 26.9104 98.1094 26.9146 97.5276 26.923C95.8661 26.9439 94.2045 26.9816 92.6518 27.0402C89.3873 27.1657 87.0645 27.3624 85.8842 27.6763C84.8973 27.9427 83.9978 28.4637 83.2757 29.1873C82.5537 29.9108 82.0344 30.8114 81.7701 31.7988C81.5148 32.7447 81.3348 34.0045 81.2093 35.5153C81.1172 36.6119 81.0586 37.7754 81.0251 38.9431C81.0126 39.3491 81.0084 39.7299 81.0042 40.0689C81.0042 40.1903 81 40.2949 81 40.387V40.6214C81 40.7134 81 40.8181 81.0042 40.9395C81.0084 41.2785 81.0167 41.6593 81.0251 42.0653C81.0586 43.233 81.1172 44.3965 81.2093 45.493C81.3348 47.0039 81.519 48.2637 81.7701 49.2095C82.3058 51.2143 83.8795 52.7963 85.8842 53.332C87.0645 53.6501 89.3873 53.8468 92.6518 53.9682C94.2045 54.0268 95.8661 54.0645 97.5276 54.0854C98.1094 54.0938 98.6493 54.0979 99.1348 54.1021H100.365C100.851 54.0979 101.391 54.0938 101.972 54.0854C103.634 54.0645 105.295 54.0268 106.848 53.9682C110.113 53.8426 112.436 53.6459 113.616 53.332C115.621 52.7963 117.194 51.2185 117.73 49.2095C117.985 48.2637 118.165 47.0039 118.291 45.493C118.383 44.3965 118.441 43.233 118.475 42.0653C118.487 41.6593 118.492 41.2785 118.496 40.9395C118.496 40.8181 118.5 40.7134 118.5 40.6214V40.387ZM115.487 40.6046C115.487 40.6925 115.487 40.7888 115.482 40.9018C115.478 41.2282 115.47 41.5882 115.461 41.9774C115.432 43.0907 115.374 44.204 115.286 45.2377C115.173 46.5854 115.014 47.6903 114.817 48.4311C114.557 49.3979 113.796 50.1638 112.833 50.4191C111.954 50.6535 109.74 50.8418 106.731 50.9548C105.208 51.0134 103.567 51.0511 101.931 51.072C101.357 51.0804 100.826 51.0845 100.348 51.0845H99.1515L97.5695 51.072C95.933 51.0511 94.2966 51.0134 92.769 50.9548C89.7598 50.8376 87.5416 50.6535 86.6669 50.4191C85.7042 50.1596 84.9425 49.3979 84.683 48.4311C84.4863 47.6903 84.3273 46.5854 84.2143 45.2377C84.1264 44.204 84.072 43.0907 84.0385 41.9774C84.0259 41.5882 84.0218 41.2241 84.0176 40.9018C84.0176 40.7888 84.0134 40.6883 84.0134 40.6046V40.4037C84.0134 40.3158 84.0134 40.2196 84.0176 40.1066C84.0218 39.7801 84.0301 39.4202 84.0385 39.031C84.0678 37.9177 84.1264 36.8044 84.2143 35.7706C84.3273 34.423 84.4863 33.3181 84.683 32.5773C84.9425 31.6105 85.7042 30.8446 86.6669 30.5893C87.5458 30.3549 89.7598 30.1666 92.769 30.0536C94.2924 29.995 95.933 29.9573 97.5695 29.9364C98.1429 29.928 98.6744 29.9238 99.1515 29.9238H100.348L101.931 29.9364C103.567 29.9573 105.203 29.995 106.731 30.0536C109.74 30.1708 111.958 30.3549 112.833 30.5893C113.796 30.8488 114.557 31.6105 114.817 32.5773C115.014 33.3181 115.173 34.423 115.286 35.7706C115.374 36.8044 115.428 37.9177 115.461 39.031C115.474 39.4202 115.478 39.7843 115.482 40.1066C115.482 40.2196 115.487 40.32 115.487 40.4037V40.6046ZM96.0251 46.1124L105.735 40.4623L96.0251 34.8959V46.1124Z" fill="white" fill-opacity="0.85"/>
</g>
<path d="M173.051 23.75H144.951C143.465 23.75 142.26 24.9554 142.26 26.4411V54.541C142.26 56.0268 143.465 57.2321 144.951 57.2321H173.051C174.537 57.2321 175.742 56.0268 175.742 54.541V26.4411C175.742 24.9554 174.537 23.75 173.051 23.75ZM173.051 54.5536C154.309 54.5494 144.938 54.5452 144.938 54.541C144.943 35.7994 144.947 26.4286 144.951 26.4286C163.693 26.4328 173.063 26.4369 173.063 26.4411C173.059 45.1828 173.055 54.5536 173.051 54.5536ZM147.223 36.3016H152.191V52.281H147.223V36.3016ZM149.71 34.1169C151.296 34.1169 152.589 32.8278 152.589 31.2374C152.589 30.8593 152.515 30.4849 152.37 30.1355C152.225 29.7862 152.013 29.4687 151.746 29.2014C151.478 28.934 151.161 28.7219 150.811 28.5772C150.462 28.4325 150.088 28.358 149.71 28.358C149.331 28.358 148.957 28.4325 148.608 28.5772C148.258 28.7219 147.941 28.934 147.673 29.2014C147.406 29.4687 147.194 29.7862 147.049 30.1355C146.905 30.4849 146.83 30.8593 146.83 31.2374C146.826 32.8278 148.115 34.1169 149.71 34.1169ZM160.269 44.375C160.269 42.2907 160.667 40.2734 163.249 40.2734C165.794 40.2734 165.831 42.6549 165.831 44.5089V52.281H170.795V43.517C170.795 39.2146 169.866 35.904 164.839 35.904C162.424 35.904 160.805 37.2307 160.139 38.4863H160.072V36.3016H155.305V52.281H160.269V44.375Z" fill="white" fill-opacity="0.85"/>
<path d="M53.876 29.2496C58.034 35.4236 60.113 42.3536 59.357 50.3546C59.357 50.3546 59.357 50.4176 59.294 50.4176C56.522 52.4966 53.372 54.0715 50.033 55.0795C49.97 55.1425 49.97 55.0795 49.907 55.0795C49.214 54.0715 48.584 53.0636 48.017 51.9926C48.017 51.9296 48.017 51.9296 48.017 51.8666L48.08 51.8036C49.088 51.4256 50.033 50.9846 50.978 50.4176C50.978 50.4176 51.041 50.4176 51.041 50.3546C51.041 50.2916 51.041 50.2916 50.978 50.2286C50.789 50.1026 50.6 49.9766 50.411 49.7876C50.348 49.7876 50.348 49.7876 50.285 49.7876C44.3 52.5596 37.748 52.5596 31.7 49.7876C31.637 49.7876 31.574 49.7876 31.574 49.7876C31.385 49.9766 31.196 50.1026 31.007 50.2286C30.944 50.2916 30.944 50.2916 30.944 50.3546C30.944 50.4176 30.944 50.4176 31.007 50.4176C31.889 50.9846 32.897 51.4256 33.905 51.8036C33.905 51.8036 33.905 51.8666 33.968 51.8666C33.968 51.9296 33.968 51.9296 33.968 51.9926C33.401 53.0636 32.771 54.0715 32.078 55.0795C32.015 55.0795 31.952 55.1425 31.952 55.0795C28.613 54.0715 25.463 52.4966 22.691 50.4176C22.628 50.4176 22.628 50.3546 22.628 50.3546C21.9981 43.4246 23.321 36.4316 28.109 29.2496C28.109 29.2496 28.109 29.2496 28.172 29.2496C30.566 28.1156 33.086 27.3596 35.669 26.9186C35.732 26.8556 35.795 26.9186 35.795 26.9186C36.173 27.5486 36.488 28.2416 36.74 28.8716C39.575 28.4306 42.41 28.4306 45.245 28.8716C45.497 28.2416 45.812 27.5486 46.19 26.9186C46.19 26.9186 46.253 26.8556 46.316 26.9186C48.899 27.3596 51.419 28.1156 53.813 29.2496C53.876 29.2496 53.876 29.2496 53.876 29.2496ZM34.85 46.1336C36.677 46.1336 38.189 44.4326 38.189 42.4166C38.189 40.3376 36.74 38.6996 34.85 38.6996C33.023 38.6996 31.511 40.3376 31.511 42.4166C31.511 44.4326 33.023 46.1336 34.85 46.1336ZM47.135 46.1336C49.025 46.1336 50.474 44.4326 50.474 42.4166C50.537 40.3376 49.025 38.6996 47.135 38.6996C45.308 38.6996 43.859 40.3376 43.859 42.4166C43.859 44.4326 45.308 46.1336 47.135 46.1336Z" fill="white"/>
<defs>
<clipPath id="clip0_576_1237">
<rect width="37.5" height="37.5" fill="white" transform="translate(81 21.75)"/>
</clipPath>
</defs>
</svg>
