<svg width="1507" height="19" viewBox="0 0 1507 19" fill="none" xmlns="http://www.w3.org/2000/svg">
<path d="M350.565 18.9629C349.72 18.9629 348.993 18.8521 348.384 18.6305C347.779 18.4089 347.285 18.1157 346.901 17.7509C346.518 17.3862 346.232 16.9868 346.043 16.5528L347.823 15.8187C347.947 16.0218 348.113 16.2365 348.321 16.4628C348.534 16.6936 348.82 16.8898 349.18 17.0514C349.545 17.213 350.013 17.2938 350.586 17.2938C351.371 17.2938 352.02 17.1022 352.532 16.719C353.045 16.3404 353.301 15.7356 353.301 14.9045V12.8129H353.169C353.045 13.0391 352.865 13.2908 352.629 13.5678C352.398 13.8448 352.08 14.0849 351.673 14.2881C351.267 14.4912 350.738 14.5928 350.087 14.5928C349.247 14.5928 348.49 14.3966 347.816 14.0041C347.146 13.6071 346.615 13.023 346.223 12.2519C345.835 11.4762 345.641 10.5228 345.641 9.39161C345.641 8.26041 345.833 7.29081 346.216 6.48281C346.604 5.67481 347.135 5.05612 347.809 4.62672C348.483 4.19271 349.247 3.97571 350.101 3.97571C350.761 3.97571 351.295 4.08652 351.701 4.30814C352.107 4.52515 352.424 4.77909 352.65 5.06997C352.881 5.36085 353.058 5.6171 353.183 5.83872H353.335V4.11422H355.365V14.9876C355.365 15.9018 355.152 16.6521 354.728 17.2384C354.303 17.8248 353.728 18.2588 353.003 18.5405C352.283 18.8221 351.47 18.9629 350.565 18.9629ZM350.544 12.8752C351.14 12.8752 351.643 12.7367 352.054 12.4597C352.47 12.178 352.784 11.7764 352.996 11.2546C353.213 10.7283 353.322 10.098 353.322 9.36391C353.322 8.64825 353.215 8.01801 353.003 7.47319C352.791 6.92837 352.479 6.50359 352.068 6.19886C351.657 5.88951 351.149 5.73484 350.544 5.73484C349.921 5.73484 349.402 5.89644 348.986 6.21964C348.571 6.53822 348.257 6.97223 348.044 7.52167C347.836 8.07111 347.733 8.68519 347.733 9.36391C347.733 10.0611 347.839 10.6729 348.051 11.1992C348.264 11.7256 348.578 12.1365 348.993 12.432C349.413 12.7275 349.93 12.8752 350.544 12.8752ZM358.142 18.7413V4.11422H360.164V5.83872H360.337C360.457 5.6171 360.631 5.36085 360.857 5.06997C361.083 4.77909 361.397 4.52515 361.799 4.30814C362.2 4.08652 362.731 3.97571 363.392 3.97571C364.25 3.97571 365.017 4.19271 365.691 4.62672C366.365 5.06073 366.894 5.68636 367.277 6.50359C367.665 7.32082 367.859 8.30427 367.859 9.45394C367.859 10.6036 367.667 11.5894 367.284 12.4112C366.901 13.2284 366.374 13.8587 365.705 14.3019C365.035 14.7406 364.271 14.9599 363.412 14.9599C362.766 14.9599 362.237 14.8514 361.826 14.6344C361.42 14.4174 361.101 14.1634 360.871 13.8725C360.64 13.5817 360.462 13.3231 360.337 13.0969H360.213V18.7413H358.142ZM360.171 9.43316C360.171 10.1811 360.28 10.8368 360.497 11.4001C360.714 11.9634 361.028 12.4043 361.439 12.7229C361.849 13.0368 362.353 13.1938 362.948 13.1938C363.567 13.1938 364.084 13.0299 364.5 12.7021C364.915 12.3697 365.229 11.9195 365.442 11.3516C365.659 10.7837 365.767 10.1442 365.767 9.43316C365.767 8.73136 365.661 8.10112 365.449 7.54244C365.241 6.98377 364.927 6.54284 364.507 6.21964C364.091 5.89644 363.572 5.73484 362.948 5.73484C362.348 5.73484 361.84 5.88951 361.425 6.19886C361.014 6.50821 360.702 6.93991 360.49 7.49397C360.277 8.04802 360.171 8.69442 360.171 9.43316ZM375.145 4.11422V5.77639H369.334V4.11422H375.145ZM370.892 1.56556H372.963V11.6286C372.963 12.0303 373.023 12.3327 373.143 12.5359C373.263 12.7344 373.418 12.8706 373.607 12.9445C373.801 13.0138 374.011 13.0484 374.237 13.0484C374.403 13.0484 374.549 13.0368 374.674 13.0138C374.798 12.9907 374.895 12.9722 374.964 12.9583L375.338 14.669C375.218 14.7152 375.048 14.7613 374.826 14.8075C374.604 14.8583 374.327 14.886 373.995 14.8906C373.45 14.8999 372.942 14.8029 372.471 14.5997C372 14.3966 371.619 14.0826 371.328 13.6578C371.038 13.2331 370.892 12.6998 370.892 12.058V1.56556ZM383.341 7.86103V9.65478H377.053V7.86103H383.341ZM385.775 11.9818V10.2504L391.905 0.568261H393.269V3.11692H392.403L388.019 10.0565V10.1673H396.42V11.9818H385.775ZM392.5 14.7521V11.4555L392.514 10.6659V0.568261H394.543V14.7521H392.5ZM403.343 14.9668C402.345 14.9668 401.475 14.7383 400.732 14.2812C399.988 13.8241 399.411 13.1846 399 12.3627C398.589 11.5409 398.384 10.5805 398.384 9.48164C398.384 8.37815 398.589 7.41317 399 6.5867C399.411 5.76023 399.988 5.11845 400.732 4.66135C401.475 4.20426 402.345 3.97571 403.343 3.97571C404.34 3.97571 405.21 4.20426 405.953 4.66135C406.697 5.11845 407.274 5.76023 407.685 6.5867C408.096 7.41317 408.301 8.37815 408.301 9.48164C408.301 10.5805 408.096 11.5409 407.685 12.3627C407.274 13.1846 406.697 13.8241 405.953 14.2812C405.21 14.7383 404.34 14.9668 403.343 14.9668ZM403.349 13.2284C403.996 13.2284 404.531 13.0576 404.956 12.7159C405.381 12.3743 405.695 11.9195 405.898 11.3516C406.106 10.7837 406.21 10.1581 406.21 9.47472C406.21 8.796 406.106 8.17268 405.898 7.60478C405.695 7.03225 405.381 6.57285 404.956 6.22656C404.531 5.88028 403.996 5.70713 403.349 5.70713C402.698 5.70713 402.158 5.88028 401.729 6.22656C401.304 6.57285 400.988 7.03225 400.78 7.60478C400.577 8.17268 400.475 8.796 400.475 9.47472C400.475 10.1581 400.577 10.7837 400.78 11.3516C400.988 11.9195 401.304 12.3743 401.729 12.7159C402.158 13.0576 402.698 13.2284 403.349 13.2284Z" fill="#F0EAEA"/>
<path d="M511.395 14.9599C510.536 14.9599 509.769 14.7406 509.095 14.3019C508.426 13.8587 507.9 13.2284 507.516 12.4112C507.138 11.5894 506.948 10.6036 506.948 9.45394C506.948 8.30427 507.14 7.32082 507.523 6.50359C507.911 5.68636 508.442 5.06073 509.116 4.62672C509.79 4.19271 510.554 3.97571 511.409 3.97571C512.069 3.97571 512.6 4.08652 513.001 4.30814C513.408 4.52515 513.722 4.77909 513.943 5.06997C514.17 5.36085 514.345 5.6171 514.47 5.83872H514.594V0.568261H516.665V14.7521H514.643V13.0969H514.47C514.345 13.3231 514.165 13.5817 513.93 13.8725C513.699 14.1634 513.38 14.4174 512.974 14.6344C512.567 14.8514 512.041 14.9599 511.395 14.9599ZM511.852 13.1938C512.447 13.1938 512.951 13.0368 513.362 12.7229C513.777 12.4043 514.091 11.9634 514.304 11.4001C514.521 10.8368 514.629 10.1811 514.629 9.43316C514.629 8.69442 514.523 8.04802 514.31 7.49397C514.098 6.93991 513.786 6.50821 513.375 6.19886C512.965 5.88951 512.457 5.73484 511.852 5.73484C511.229 5.73484 510.709 5.89644 510.294 6.21964C509.878 6.54284 509.564 6.98377 509.352 7.54244C509.144 8.10112 509.04 8.73136 509.04 9.43316C509.04 10.1442 509.146 10.7837 509.359 11.3516C509.571 11.9195 509.885 12.3697 510.3 12.7021C510.721 13.0299 511.238 13.1938 511.852 13.1938ZM524.206 14.9668C523.157 14.9668 522.255 14.7429 521.498 14.295C520.745 13.8425 520.163 13.2077 519.752 12.3904C519.346 11.5686 519.143 10.6059 519.143 9.50242C519.143 8.41278 519.346 7.45241 519.752 6.62133C520.163 5.79024 520.736 5.14153 521.47 4.6752C522.209 4.20887 523.072 3.97571 524.06 3.97571C524.66 3.97571 525.242 4.07498 525.805 4.27351C526.369 4.47205 526.874 4.78371 527.322 5.20848C527.77 5.63326 528.123 6.18501 528.382 6.86373C528.64 7.53783 528.77 8.35737 528.77 9.32235V10.0565H520.313V8.50512H526.74C526.74 7.9603 526.63 7.47781 526.408 7.05765C526.186 6.63287 525.875 6.29813 525.473 6.05342C525.076 5.80871 524.61 5.68636 524.074 5.68636C523.492 5.68636 522.984 5.82949 522.55 6.11575C522.121 6.3974 521.788 6.76677 521.553 7.22386C521.322 7.67634 521.207 8.16807 521.207 8.69904V9.91104C521.207 10.6221 521.331 11.2269 521.581 11.7256C521.835 12.2242 522.188 12.6051 522.64 12.8683C523.093 13.1269 523.621 13.2562 524.226 13.2562C524.619 13.2562 524.977 13.2007 525.3 13.0899C525.623 12.9745 525.902 12.8037 526.138 12.5774C526.373 12.3512 526.553 12.0719 526.678 11.7394L528.638 12.0926C528.481 12.6698 528.199 13.1754 527.793 13.6094C527.391 14.0388 526.886 14.3735 526.276 14.6136C525.671 14.8491 524.981 14.9668 524.206 14.9668ZM535.652 14.9668C534.604 14.9668 533.701 14.7429 532.944 14.295C532.191 13.8425 531.61 13.2077 531.199 12.3904C530.792 11.5686 530.589 10.6059 530.589 9.50242C530.589 8.41278 530.792 7.45241 531.199 6.62133C531.61 5.79024 532.182 5.14153 532.916 4.6752C533.655 4.20887 534.518 3.97571 535.507 3.97571C536.107 3.97571 536.689 4.07498 537.252 4.27351C537.815 4.47205 538.321 4.78371 538.769 5.20848C539.216 5.63326 539.57 6.18501 539.828 6.86373C540.087 7.53783 540.216 8.35737 540.216 9.32235V10.0565H531.76V8.50512H538.187C538.187 7.9603 538.076 7.47781 537.854 7.05765C537.633 6.63287 537.321 6.29813 536.919 6.05342C536.522 5.80871 536.056 5.68636 535.52 5.68636C534.939 5.68636 534.431 5.82949 533.997 6.11575C533.567 6.3974 533.235 6.76677 532.999 7.22386C532.769 7.67634 532.653 8.16807 532.653 8.69904V9.91104C532.653 10.6221 532.778 11.2269 533.027 11.7256C533.281 12.2242 533.634 12.6051 534.087 12.8683C534.539 13.1269 535.068 13.2562 535.673 13.2562C536.065 13.2562 536.423 13.2007 536.746 13.0899C537.069 12.9745 537.349 12.8037 537.584 12.5774C537.82 12.3512 538 12.0719 538.124 11.7394L540.084 12.0926C539.927 12.6698 539.646 13.1754 539.24 13.6094C538.838 14.0388 538.332 14.3735 537.723 14.6136C537.118 14.8491 536.428 14.9668 535.652 14.9668ZM542.514 18.7413V4.11422H544.536V5.83872H544.709C544.829 5.6171 545.002 5.36085 545.229 5.06997C545.455 4.77909 545.769 4.52515 546.17 4.30814C546.572 4.08652 547.103 3.97571 547.763 3.97571C548.622 3.97571 549.389 4.19271 550.063 4.62672C550.737 5.06073 551.265 5.68636 551.649 6.50359C552.036 7.32082 552.23 8.30427 552.23 9.45394C552.23 10.6036 552.039 11.5894 551.656 12.4112C551.272 13.2284 550.746 13.8587 550.077 14.3019C549.407 14.7406 548.643 14.9599 547.784 14.9599C547.138 14.9599 546.609 14.8514 546.198 14.6344C545.792 14.4174 545.473 14.1634 545.242 13.8725C545.012 13.5817 544.834 13.3231 544.709 13.0969H544.584V18.7413H542.514ZM544.543 9.43316C544.543 10.1811 544.651 10.8368 544.868 11.4001C545.085 11.9634 545.399 12.4043 545.81 12.7229C546.221 13.0368 546.724 13.1938 547.32 13.1938C547.939 13.1938 548.456 13.0299 548.871 12.7021C549.287 12.3697 549.601 11.9195 549.813 11.3516C550.03 10.7837 550.139 10.1442 550.139 9.43316C550.139 8.73136 550.033 8.10112 549.82 7.54244C549.612 6.98377 549.299 6.54284 548.878 6.21964C548.463 5.89644 547.943 5.73484 547.32 5.73484C546.72 5.73484 546.212 5.88951 545.796 6.19886C545.386 6.50821 545.074 6.93991 544.861 7.49397C544.649 8.04802 544.543 8.69442 544.543 9.43316ZM562.522 6.71136L560.645 7.04379C560.567 6.8037 560.442 6.57515 560.271 6.35815C560.105 6.14114 559.879 5.96338 559.592 5.82487C559.306 5.68636 558.948 5.6171 558.519 5.6171C557.933 5.6171 557.443 5.74869 557.051 6.01186C556.658 6.27042 556.462 6.60517 556.462 7.01609C556.462 7.37161 556.594 7.65787 556.857 7.87488C557.12 8.09188 557.545 8.26964 558.131 8.40816L559.821 8.796C560.8 9.02224 561.529 9.37083 562.01 9.84178C562.49 10.3127 562.73 10.9245 562.73 11.6771C562.73 12.3143 562.545 12.8822 562.176 13.3808C561.811 13.8748 561.301 14.2627 560.645 14.5443C559.994 14.826 559.239 14.9668 558.38 14.9668C557.189 14.9668 556.217 14.7129 555.465 14.205C554.712 13.6925 554.25 12.9653 554.08 12.0234L556.081 11.7186C556.206 12.2404 556.462 12.6351 556.85 12.9029C557.238 13.1661 557.743 13.2977 558.367 13.2977C559.045 13.2977 559.588 13.1569 559.994 12.8752C560.4 12.589 560.604 12.2404 560.604 11.8295C560.604 11.497 560.479 11.2177 560.23 10.9914C559.985 10.7652 559.609 10.5944 559.101 10.4789L557.3 10.0842C556.307 9.85794 555.573 9.4978 555.098 9.00377C554.627 8.50974 554.391 7.88411 554.391 7.1269C554.391 6.49897 554.567 5.94953 554.918 5.47859C555.268 5.00764 555.753 4.64058 556.372 4.3774C556.991 4.1096 557.699 3.97571 558.498 3.97571C559.648 3.97571 560.553 4.22503 561.213 4.72368C561.873 5.21772 562.31 5.88028 562.522 6.71136ZM569.591 14.9668C568.543 14.9668 567.641 14.7429 566.883 14.295C566.131 13.8425 565.549 13.2077 565.138 12.3904C564.732 11.5686 564.529 10.6059 564.529 9.50242C564.529 8.41278 564.732 7.45241 565.138 6.62133C565.549 5.79024 566.122 5.14153 566.856 4.6752C567.595 4.20887 568.458 3.97571 569.446 3.97571C570.046 3.97571 570.628 4.07498 571.191 4.27351C571.755 4.47205 572.26 4.78371 572.708 5.20848C573.156 5.63326 573.509 6.18501 573.768 6.86373C574.026 7.53783 574.155 8.35737 574.155 9.32235V10.0565H565.699V8.50512H572.126C572.126 7.9603 572.015 7.47781 571.794 7.05765C571.572 6.63287 571.261 6.29813 570.859 6.05342C570.462 5.80871 569.995 5.68636 569.46 5.68636C568.878 5.68636 568.37 5.82949 567.936 6.11575C567.507 6.3974 567.174 6.76677 566.939 7.22386C566.708 7.67634 566.593 8.16807 566.593 8.69904V9.91104C566.593 10.6221 566.717 11.2269 566.967 11.7256C567.221 12.2242 567.574 12.6051 568.026 12.8683C568.479 13.1269 569.007 13.2562 569.612 13.2562C570.005 13.2562 570.362 13.2007 570.686 13.0899C571.009 12.9745 571.288 12.8037 571.524 12.5774C571.759 12.3512 571.939 12.0719 572.064 11.7394L574.024 12.0926C573.867 12.6698 573.585 13.1754 573.179 13.6094C572.777 14.0388 572.272 14.3735 571.662 14.6136C571.057 14.8491 570.367 14.9668 569.591 14.9668ZM581.038 14.9668C579.99 14.9668 579.087 14.7429 578.33 14.295C577.577 13.8425 576.996 13.2077 576.585 12.3904C576.178 11.5686 575.975 10.6059 575.975 9.50242C575.975 8.41278 576.178 7.45241 576.585 6.62133C576.996 5.79024 577.568 5.14153 578.302 4.6752C579.041 4.20887 579.904 3.97571 580.892 3.97571C581.493 3.97571 582.074 4.07498 582.638 4.27351C583.201 4.47205 583.707 4.78371 584.154 5.20848C584.602 5.63326 584.956 6.18501 585.214 6.86373C585.473 7.53783 585.602 8.35737 585.602 9.32235V10.0565H577.146V8.50512H583.573C583.573 7.9603 583.462 7.47781 583.24 7.05765C583.019 6.63287 582.707 6.29813 582.305 6.05342C581.908 5.80871 581.442 5.68636 580.906 5.68636C580.325 5.68636 579.817 5.82949 579.383 6.11575C578.953 6.3974 578.621 6.76677 578.385 7.22386C578.154 7.67634 578.039 8.16807 578.039 8.69904V9.91104C578.039 10.6221 578.164 11.2269 578.413 11.7256C578.667 12.2242 579.02 12.6051 579.473 12.8683C579.925 13.1269 580.454 13.2562 581.059 13.2562C581.451 13.2562 581.809 13.2007 582.132 13.0899C582.455 12.9745 582.735 12.8037 582.97 12.5774C583.206 12.3512 583.386 12.0719 583.51 11.7394L585.47 12.0926C585.313 12.6698 585.032 13.1754 584.625 13.6094C584.224 14.0388 583.718 14.3735 583.109 14.6136C582.504 14.8491 581.814 14.9668 581.038 14.9668ZM589.804 11.1438L589.79 8.61593H590.15L594.389 4.11422H596.868L592.034 9.23924H591.709L589.804 11.1438ZM587.9 14.7521V0.568261H589.97V14.7521H587.9ZM594.617 14.7521L590.808 9.69634L592.235 8.24887L597.159 14.7521H594.617Z" fill="#F0EAEA"/>
<path d="M646.885 14.9668C645.855 14.9668 644.969 14.7336 644.225 14.2673C643.487 13.7964 642.919 13.1476 642.522 12.3212C642.125 11.4947 641.926 10.5482 641.926 9.48164C641.926 8.40123 642.129 7.44779 642.535 6.62133C642.942 5.79024 643.514 5.14153 644.253 4.6752C644.992 4.20887 645.862 3.97571 646.864 3.97571C647.672 3.97571 648.392 4.12576 649.025 4.42588C649.657 4.72137 650.168 5.13692 650.555 5.6725C650.948 6.20809 651.181 6.83371 651.255 7.54937H649.24C649.129 7.05072 648.875 6.62133 648.478 6.26119C648.085 5.90105 647.559 5.72099 646.899 5.72099C646.321 5.72099 645.816 5.87335 645.382 6.17808C644.953 6.4782 644.618 6.90759 644.378 7.46626C644.138 8.02032 644.018 8.67595 644.018 9.43316C644.018 10.2088 644.135 10.8783 644.371 11.4416C644.606 12.0049 644.939 12.4412 645.368 12.7506C645.802 13.0599 646.312 13.2146 646.899 13.2146C647.291 13.2146 647.647 13.143 647.965 12.9999C648.288 12.8522 648.558 12.6421 648.776 12.3697C648.997 12.0972 649.152 11.7694 649.24 11.3862H651.255C651.181 12.0742 650.957 12.6882 650.583 13.2284C650.209 13.7687 649.708 14.1934 649.08 14.5028C648.457 14.8121 647.725 14.9668 646.885 14.9668ZM655.54 0.568261V14.7521H653.469V0.568261H655.54ZM661.422 14.9876C660.748 14.9876 660.138 14.8629 659.593 14.6136C659.049 14.3596 658.617 13.9926 658.298 13.5124C657.984 13.0322 657.827 12.4435 657.827 11.7463C657.827 11.1461 657.943 10.6521 658.174 10.2642C658.405 9.87641 658.716 9.56937 659.109 9.34313C659.501 9.11689 659.94 8.94605 660.425 8.83063C660.909 8.7152 661.403 8.62747 661.907 8.56745C662.544 8.49357 663.061 8.43355 663.458 8.38738C663.855 8.33659 664.144 8.25579 664.324 8.14498C664.504 8.03417 664.594 7.8541 664.594 7.60478V7.5563C664.594 6.95145 664.423 6.48281 664.081 6.15038C663.744 5.81794 663.241 5.65173 662.572 5.65173C661.874 5.65173 661.325 5.8064 660.923 6.11575C660.526 6.42048 660.251 6.75984 660.099 7.13383L658.153 6.69058C658.384 6.04418 658.721 5.52245 659.164 5.12537C659.612 4.72368 660.127 4.4328 660.708 4.25274C661.29 4.06805 661.902 3.97571 662.544 3.97571C662.969 3.97571 663.419 4.0265 663.894 4.12807C664.374 4.22503 664.822 4.4051 665.238 4.66828C665.658 4.93145 666.002 5.30775 666.27 5.79717C666.538 6.28197 666.672 6.91221 666.672 7.68789V14.7521H664.649V13.2977H664.566C664.432 13.5655 664.231 13.8287 663.964 14.0872C663.696 14.3458 663.352 14.5605 662.932 14.7313C662.511 14.9022 662.008 14.9876 661.422 14.9876ZM661.872 13.3254C662.445 13.3254 662.934 13.2123 663.34 12.986C663.751 12.7598 664.063 12.4643 664.275 12.0996C664.492 11.7302 664.601 11.3354 664.601 10.9153V9.54397C664.527 9.61785 664.384 9.6871 664.171 9.75174C663.964 9.81177 663.726 9.86486 663.458 9.91104C663.19 9.95259 662.929 9.99184 662.675 10.0288C662.421 10.0611 662.209 10.0888 662.038 10.1119C661.637 10.1627 661.269 10.2481 660.937 10.3681C660.609 10.4882 660.346 10.6613 660.148 10.8876C659.954 11.1092 659.857 11.4047 659.857 11.7741C659.857 12.2866 660.046 12.6744 660.425 12.9376C660.803 13.1961 661.286 13.3254 661.872 13.3254ZM676.168 10.3404V4.11422H678.246V14.7521H676.21V12.9099H676.099C675.854 13.4778 675.462 13.951 674.922 14.3296C674.386 14.7036 673.719 14.8906 672.92 14.8906C672.237 14.8906 671.632 14.7406 671.106 14.4404C670.584 14.1357 670.173 13.6855 669.873 13.0899C669.577 12.4943 669.43 11.7579 669.43 10.8806V4.11422H671.5V10.6313C671.5 11.3562 671.701 11.9333 672.103 12.3627C672.505 12.7921 673.026 13.0068 673.668 13.0068C674.056 13.0068 674.442 12.9099 674.825 12.7159C675.213 12.522 675.534 12.2288 675.787 11.8364C676.046 11.4439 676.173 10.9453 676.168 10.3404ZM685.011 14.9599C684.152 14.9599 683.386 14.7406 682.711 14.3019C682.042 13.8587 681.516 13.2284 681.132 12.4112C680.754 11.5894 680.564 10.6036 680.564 9.45394C680.564 8.30427 680.756 7.32082 681.139 6.50359C681.527 5.68636 682.058 5.06073 682.732 4.62672C683.406 4.19271 684.17 3.97571 685.025 3.97571C685.685 3.97571 686.216 4.08652 686.618 4.30814C687.024 4.52515 687.338 4.77909 687.559 5.06997C687.786 5.36085 687.961 5.6171 688.086 5.83872H688.21V0.568261H690.281V14.7521H688.259V13.0969H688.086C687.961 13.3231 687.781 13.5817 687.546 13.8725C687.315 14.1634 686.996 14.4174 686.59 14.6344C686.184 14.8514 685.657 14.9599 685.011 14.9599ZM685.468 13.1938C686.063 13.1938 686.567 13.0368 686.978 12.7229C687.393 12.4043 687.707 11.9634 687.92 11.4001C688.137 10.8368 688.245 10.1811 688.245 9.43316C688.245 8.69442 688.139 8.04802 687.927 7.49397C687.714 6.93991 687.402 6.50821 686.992 6.19886C686.581 5.88951 686.073 5.73484 685.468 5.73484C684.845 5.73484 684.325 5.89644 683.91 6.21964C683.494 6.54284 683.18 6.98377 682.968 7.54244C682.76 8.10112 682.656 8.73136 682.656 9.43316C682.656 10.1442 682.762 10.7837 682.975 11.3516C683.187 11.9195 683.501 12.3697 683.917 12.7021C684.337 13.0299 684.854 13.1938 685.468 13.1938ZM697.822 14.9668C696.774 14.9668 695.871 14.7429 695.114 14.295C694.361 13.8425 693.779 13.2077 693.368 12.3904C692.962 11.5686 692.759 10.6059 692.759 9.50242C692.759 8.41278 692.962 7.45241 693.368 6.62133C693.779 5.79024 694.352 5.14153 695.086 4.6752C695.825 4.20887 696.688 3.97571 697.676 3.97571C698.276 3.97571 698.858 4.07498 699.421 4.27351C699.985 4.47205 700.49 4.78371 700.938 5.20848C701.386 5.63326 701.739 6.18501 701.998 6.86373C702.256 7.53783 702.386 8.35737 702.386 9.32235V10.0565H693.929V8.50512H700.356C700.356 7.9603 700.246 7.47781 700.024 7.05765C699.802 6.63287 699.491 6.29813 699.089 6.05342C698.692 5.80871 698.226 5.68636 697.69 5.68636C697.108 5.68636 696.6 5.82949 696.166 6.11575C695.737 6.3974 695.405 6.76677 695.169 7.22386C694.938 7.67634 694.823 8.16807 694.823 8.69904V9.91104C694.823 10.6221 694.947 11.2269 695.197 11.7256C695.451 12.2242 695.804 12.6051 696.256 12.8683C696.709 13.1269 697.238 13.2562 697.842 13.2562C698.235 13.2562 698.593 13.2007 698.916 13.0899C699.239 12.9745 699.518 12.8037 699.754 12.5774C699.989 12.3512 700.169 12.0719 700.294 11.7394L702.254 12.0926C702.097 12.6698 701.815 13.1754 701.409 13.6094C701.007 14.0388 700.502 14.3735 699.892 14.6136C699.288 14.8491 698.597 14.9668 697.822 14.9668ZM710.951 7.86103V9.65478H704.662V7.86103H710.951ZM721.682 6.71136L719.806 7.04379C719.727 6.8037 719.602 6.57515 719.432 6.35815C719.265 6.14114 719.039 5.96338 718.753 5.82487C718.467 5.68636 718.109 5.6171 717.679 5.6171C717.093 5.6171 716.604 5.74869 716.211 6.01186C715.819 6.27042 715.622 6.60517 715.622 7.01609C715.622 7.37161 715.754 7.65787 716.017 7.87488C716.28 8.09188 716.705 8.26964 717.291 8.40816L718.981 8.796C719.96 9.02224 720.69 9.37083 721.17 9.84178C721.65 10.3127 721.89 10.9245 721.89 11.6771C721.89 12.3143 721.705 12.8822 721.336 13.3808C720.971 13.8748 720.461 14.2627 719.806 14.5443C719.155 14.826 718.4 14.9668 717.541 14.9668C716.35 14.9668 715.378 14.7129 714.625 14.205C713.873 13.6925 713.411 12.9653 713.24 12.0234L715.241 11.7186C715.366 12.2404 715.622 12.6351 716.01 12.9029C716.398 13.1661 716.904 13.2977 717.527 13.2977C718.206 13.2977 718.748 13.1569 719.155 12.8752C719.561 12.589 719.764 12.2404 719.764 11.8295C719.764 11.497 719.639 11.2177 719.39 10.9914C719.145 10.7652 718.769 10.5944 718.261 10.4789L716.46 10.0842C715.468 9.85794 714.734 9.4978 714.258 9.00377C713.787 8.50974 713.552 7.88411 713.552 7.1269C713.552 6.49897 713.727 5.94953 714.078 5.47859C714.429 5.00764 714.914 4.64058 715.532 4.3774C716.151 4.1096 716.86 3.97571 717.659 3.97571C718.808 3.97571 719.713 4.22503 720.373 4.72368C721.034 5.21772 721.47 5.88028 721.682 6.71136ZM728.648 14.9668C727.651 14.9668 726.78 14.7383 726.037 14.2812C725.294 13.8241 724.716 13.1846 724.305 12.3627C723.895 11.5409 723.689 10.5805 723.689 9.48164C723.689 8.37815 723.895 7.41317 724.305 6.5867C724.716 5.76023 725.294 5.11845 726.037 4.66135C726.78 4.20426 727.651 3.97571 728.648 3.97571C729.645 3.97571 730.516 4.20426 731.259 4.66135C732.002 5.11845 732.579 5.76023 732.99 6.5867C733.401 7.41317 733.607 8.37815 733.607 9.48164C733.607 10.5805 733.401 11.5409 732.99 12.3627C732.579 13.1846 732.002 13.8241 731.259 14.2812C730.516 14.7383 729.645 14.9668 728.648 14.9668ZM728.655 13.2284C729.301 13.2284 729.837 13.0576 730.262 12.7159C730.686 12.3743 731 11.9195 731.203 11.3516C731.411 10.7837 731.515 10.1581 731.515 9.47472C731.515 8.796 731.411 8.17268 731.203 7.60478C731 7.03225 730.686 6.57285 730.262 6.22656C729.837 5.88028 729.301 5.70713 728.655 5.70713C728.004 5.70713 727.464 5.88028 727.034 6.22656C726.609 6.57285 726.293 7.03225 726.085 7.60478C725.882 8.17268 725.781 8.796 725.781 9.47472C725.781 10.1581 725.882 10.7837 726.085 11.3516C726.293 11.9195 726.609 12.3743 727.034 12.7159C727.464 13.0576 728.004 13.2284 728.655 13.2284ZM737.989 8.43586V14.7521H735.918V4.11422H737.906V5.84565H738.037C738.282 5.28236 738.665 4.82988 739.187 4.48821C739.713 4.14654 740.376 3.97571 741.175 3.97571C741.9 3.97571 742.535 4.12807 743.079 4.4328C743.624 4.73292 744.047 5.18078 744.347 5.77639C744.647 6.372 744.797 7.10843 744.797 7.98569V14.7521H742.726V8.23502C742.726 7.46395 742.525 6.86142 742.124 6.42741C741.722 5.98878 741.17 5.76946 740.468 5.76946C739.988 5.76946 739.561 5.87335 739.187 6.08112C738.818 6.28889 738.525 6.59362 738.308 6.99531C738.095 7.39239 737.989 7.87257 737.989 8.43586ZM749.645 8.43586V14.7521H747.574V4.11422H749.562V5.84565H749.693C749.938 5.28236 750.321 4.82988 750.843 4.48821C751.369 4.14654 752.032 3.97571 752.831 3.97571C753.556 3.97571 754.19 4.12807 754.735 4.4328C755.28 4.73292 755.703 5.18078 756.003 5.77639C756.303 6.372 756.453 7.10843 756.453 7.98569V14.7521H754.382V8.23502C754.382 7.46395 754.181 6.86142 753.78 6.42741C753.378 5.98878 752.826 5.76946 752.124 5.76946C751.644 5.76946 751.217 5.87335 750.843 6.08112C750.474 6.28889 750.181 6.59362 749.963 6.99531C749.751 7.39239 749.645 7.87257 749.645 8.43586ZM763.815 14.9668C762.767 14.9668 761.864 14.7429 761.107 14.295C760.354 13.8425 759.773 13.2077 759.362 12.3904C758.955 11.5686 758.752 10.6059 758.752 9.50242C758.752 8.41278 758.955 7.45241 759.362 6.62133C759.773 5.79024 760.345 5.14153 761.079 4.6752C761.818 4.20887 762.681 3.97571 763.669 3.97571C764.27 3.97571 764.851 4.07498 765.415 4.27351C765.978 4.47205 766.484 4.78371 766.931 5.20848C767.379 5.63326 767.733 6.18501 767.991 6.86373C768.25 7.53783 768.379 8.35737 768.379 9.32235V10.0565H759.923V8.50512H766.35C766.35 7.9603 766.239 7.47781 766.017 7.05765C765.796 6.63287 765.484 6.29813 765.082 6.05342C764.685 5.80871 764.219 5.68636 763.683 5.68636C763.102 5.68636 762.594 5.82949 762.16 6.11575C761.73 6.3974 761.398 6.76677 761.162 7.22386C760.932 7.67634 760.816 8.16807 760.816 8.69904V9.91104C760.816 10.6221 760.941 11.2269 761.19 11.7256C761.444 12.2242 761.797 12.6051 762.25 12.8683C762.702 13.1269 763.231 13.2562 763.836 13.2562C764.228 13.2562 764.586 13.2007 764.909 13.0899C765.232 12.9745 765.512 12.8037 765.747 12.5774C765.983 12.3512 766.163 12.0719 766.287 11.7394L768.247 12.0926C768.09 12.6698 767.809 13.1754 767.402 13.6094C767.001 14.0388 766.495 14.3735 765.886 14.6136C765.281 14.8491 764.591 14.9668 763.815 14.9668ZM775.642 4.11422V5.77639H769.832V4.11422H775.642ZM771.39 1.56556H773.461V11.6286C773.461 12.0303 773.521 12.3327 773.641 12.5359C773.761 12.7344 773.915 12.8706 774.105 12.9445C774.299 13.0138 774.509 13.0484 774.735 13.0484C774.901 13.0484 775.047 13.0368 775.171 13.0138C775.296 12.9907 775.393 12.9722 775.462 12.9583L775.836 14.669C775.716 14.7152 775.545 14.7613 775.324 14.8075C775.102 14.8583 774.825 14.886 774.493 14.8906C773.948 14.8999 773.44 14.8029 772.969 14.5997C772.498 14.3966 772.117 14.0826 771.826 13.6578C771.535 13.2331 771.39 12.6998 771.39 12.058V1.56556ZM783.839 7.86103V9.65478H777.55V7.86103H783.839ZM786.273 11.9818V10.2504L792.402 0.568261H793.767V3.11692H792.901L788.517 10.0565V10.1673H796.918V11.9818H786.273ZM792.998 14.7521V11.4555L793.012 10.6659V0.568261H795.041V14.7521H792.998ZM800.19 14.8837C799.812 14.8837 799.486 14.7498 799.214 14.482C798.941 14.2096 798.805 13.8818 798.805 13.4986C798.805 13.1199 798.941 12.7967 799.214 12.529C799.486 12.2565 799.812 12.1203 800.19 12.1203C800.569 12.1203 800.895 12.2565 801.167 12.529C801.439 12.7967 801.576 13.1199 801.576 13.4986C801.576 13.7525 801.511 13.9857 801.382 14.198C801.257 14.4058 801.091 14.572 800.883 14.6967C800.675 14.8214 800.444 14.8837 800.19 14.8837ZM808.775 14.946C807.907 14.946 807.127 14.7798 806.434 14.4474C805.746 14.1103 805.197 13.6486 804.786 13.0622C804.375 12.4759 804.155 11.8064 804.128 11.0538H806.205C806.256 11.6632 806.526 12.1642 807.016 12.5567C807.505 12.9491 808.092 13.1453 808.775 13.1453C809.32 13.1453 809.802 13.0207 810.222 12.7714C810.647 12.5174 810.98 12.1688 811.22 11.7256C811.464 11.2823 811.587 10.7767 811.587 10.2088C811.587 9.6317 811.462 9.11689 811.213 8.66441C810.963 8.21193 810.619 7.85641 810.181 7.59785C809.747 7.33929 809.248 7.2077 808.685 7.20309C808.255 7.20309 807.824 7.27696 807.39 7.42471C806.956 7.57246 806.605 7.76638 806.337 8.00647L804.377 7.71559L805.173 0.568261H812.972V2.40357H806.953L806.503 6.372H806.586C806.863 6.10421 807.23 5.88028 807.688 5.70021C808.149 5.52014 808.643 5.43011 809.17 5.43011C810.033 5.43011 810.802 5.63557 811.476 6.04649C812.155 6.45742 812.688 7.0184 813.076 7.72944C813.468 8.43586 813.662 9.24848 813.657 10.1673C813.662 11.0861 813.454 11.9056 813.034 12.6259C812.619 13.3462 812.041 13.9141 811.303 14.3296C810.569 14.7406 809.726 14.946 808.775 14.946Z" fill="#F0EAEA"/>
<path d="M1005.87 18.9629C1005.03 18.9629 1004.3 18.8521 1003.69 18.6305C1003.08 18.4089 1002.59 18.1157 1002.21 17.7509C1001.82 17.3862 1001.54 16.9868 1001.35 16.5528L1003.13 15.8187C1003.25 16.0218 1003.42 16.2365 1003.63 16.4628C1003.84 16.6936 1004.12 16.8898 1004.49 17.0514C1004.85 17.213 1005.32 17.2938 1005.89 17.2938C1006.68 17.2938 1007.32 17.1022 1007.84 16.719C1008.35 16.3404 1008.61 15.7356 1008.61 14.9045V12.8129H1008.47C1008.35 13.0391 1008.17 13.2908 1007.93 13.5678C1007.7 13.8448 1007.38 14.0849 1006.98 14.2881C1006.57 14.4912 1006.04 14.5928 1005.39 14.5928C1004.55 14.5928 1003.79 14.3966 1003.12 14.0041C1002.45 13.6071 1001.92 13.023 1001.53 12.2519C1001.14 11.4762 1000.95 10.5228 1000.95 9.39161C1000.95 8.26041 1001.14 7.29081 1001.52 6.48281C1001.91 5.67481 1002.44 5.05612 1003.11 4.62672C1003.79 4.19271 1004.55 3.97571 1005.41 3.97571C1006.07 3.97571 1006.6 4.08652 1007.01 4.30814C1007.41 4.52515 1007.73 4.77909 1007.95 5.06997C1008.19 5.36085 1008.36 5.6171 1008.49 5.83872H1008.64V4.11422H1010.67V14.9876C1010.67 15.9018 1010.46 16.6521 1010.03 17.2384C1009.61 17.8248 1009.03 18.2588 1008.31 18.5405C1007.59 18.8221 1006.78 18.9629 1005.87 18.9629ZM1005.85 12.8752C1006.45 12.8752 1006.95 12.7367 1007.36 12.4597C1007.77 12.178 1008.09 11.7764 1008.3 11.2546C1008.52 10.7283 1008.63 10.098 1008.63 9.36391C1008.63 8.64825 1008.52 8.01801 1008.31 7.47319C1008.1 6.92837 1007.78 6.50359 1007.37 6.19886C1006.96 5.88951 1006.45 5.73484 1005.85 5.73484C1005.23 5.73484 1004.71 5.89644 1004.29 6.21964C1003.88 6.53822 1003.56 6.97223 1003.35 7.52167C1003.14 8.07111 1003.04 8.68519 1003.04 9.36391C1003.04 10.0611 1003.14 10.6729 1003.36 11.1992C1003.57 11.7256 1003.88 12.1365 1004.3 12.432C1004.72 12.7275 1005.24 12.8752 1005.85 12.8752ZM1018.03 14.9668C1016.98 14.9668 1016.08 14.7429 1015.32 14.295C1014.57 13.8425 1013.99 13.2077 1013.58 12.3904C1013.17 11.5686 1012.97 10.6059 1012.97 9.50242C1012.97 8.41278 1013.17 7.45241 1013.58 6.62133C1013.99 5.79024 1014.56 5.14153 1015.3 4.6752C1016.03 4.20887 1016.9 3.97571 1017.89 3.97571C1018.49 3.97571 1019.07 4.07498 1019.63 4.27351C1020.19 4.47205 1020.7 4.78371 1021.15 5.20848C1021.6 5.63326 1021.95 6.18501 1022.21 6.86373C1022.47 7.53783 1022.6 8.35737 1022.6 9.32235V10.0565H1014.14V8.50512H1020.57C1020.57 7.9603 1020.46 7.47781 1020.23 7.05765C1020.01 6.63287 1019.7 6.29813 1019.3 6.05342C1018.9 5.80871 1018.44 5.68636 1017.9 5.68636C1017.32 5.68636 1016.81 5.82949 1016.38 6.11575C1015.95 6.3974 1015.61 6.76677 1015.38 7.22386C1015.15 7.67634 1015.03 8.16807 1015.03 8.69904V9.91104C1015.03 10.6221 1015.16 11.2269 1015.41 11.7256C1015.66 12.2242 1016.01 12.6051 1016.47 12.8683C1016.92 13.1269 1017.45 13.2562 1018.05 13.2562C1018.45 13.2562 1018.8 13.2007 1019.13 13.0899C1019.45 12.9745 1019.73 12.8037 1019.96 12.5774C1020.2 12.3512 1020.38 12.0719 1020.5 11.7394L1022.46 12.0926C1022.31 12.6698 1022.03 13.1754 1021.62 13.6094C1021.22 14.0388 1020.71 14.3735 1020.1 14.6136C1019.5 14.8491 1018.81 14.9668 1018.03 14.9668ZM1024.89 14.7521V4.11422H1026.88V5.84565H1027.01C1027.23 5.25927 1027.6 4.80218 1028.1 4.47436C1028.6 4.14192 1029.21 3.97571 1029.91 3.97571C1030.62 3.97571 1031.21 4.14192 1031.69 4.47436C1032.18 4.80679 1032.54 5.26389 1032.77 5.84565H1032.88C1033.13 5.27774 1033.54 4.82526 1034.09 4.48821C1034.64 4.14654 1035.31 3.97571 1036.07 3.97571C1037.04 3.97571 1037.82 4.27813 1038.43 4.88297C1039.05 5.48782 1039.35 6.3997 1039.35 7.61863V14.7521H1037.28V7.81255C1037.28 7.09227 1037.09 6.57054 1036.69 6.24734C1036.3 5.92414 1035.83 5.76254 1035.29 5.76254C1034.61 5.76254 1034.09 5.97031 1033.72 6.38585C1033.34 6.79678 1033.16 7.32544 1033.16 7.97184V14.7521H1031.09V7.68096C1031.09 7.10382 1030.91 6.63979 1030.55 6.28889C1030.19 5.93799 1029.72 5.76254 1029.15 5.76254C1028.75 5.76254 1028.39 5.86642 1028.06 6.0742C1027.73 6.27735 1027.47 6.5613 1027.26 6.92606C1027.06 7.29081 1026.96 7.71328 1026.96 8.19346V14.7521H1024.89ZM1042.13 14.7521V4.11422H1044.2V14.7521H1042.13ZM1043.18 2.47283C1042.82 2.47283 1042.51 2.35278 1042.25 2.11269C1041.99 1.86798 1041.87 1.57711 1041.87 1.24005C1041.87 0.898386 1041.99 0.607507 1042.25 0.367415C1042.51 0.122707 1042.82 0.000353404 1043.18 0.000353404C1043.54 0.000353404 1043.84 0.122707 1044.1 0.367415C1044.36 0.607507 1044.48 0.898386 1044.48 1.24005C1044.48 1.57711 1044.36 1.86798 1044.1 2.11269C1043.84 2.35278 1043.54 2.47283 1043.18 2.47283ZM1049.06 8.43586V14.7521H1046.99V4.11422H1048.97V5.84565H1049.11C1049.35 5.28236 1049.73 4.82988 1050.26 4.48821C1050.78 4.14654 1051.44 3.97571 1052.24 3.97571C1052.97 3.97571 1053.6 4.12807 1054.15 4.4328C1054.69 4.73292 1055.11 5.18078 1055.42 5.77639C1055.72 6.372 1055.87 7.10843 1055.87 7.98569V14.7521H1053.79V8.23502C1053.79 7.46395 1053.59 6.86142 1053.19 6.42741C1052.79 5.98878 1052.24 5.76946 1051.54 5.76946C1051.06 5.76946 1050.63 5.87335 1050.26 6.08112C1049.89 6.28889 1049.59 6.59362 1049.38 6.99531C1049.16 7.39239 1049.06 7.87257 1049.06 8.43586ZM1058.64 14.7521V4.11422H1060.71V14.7521H1058.64ZM1059.69 2.47283C1059.33 2.47283 1059.02 2.35278 1058.76 2.11269C1058.51 1.86798 1058.38 1.57711 1058.38 1.24005C1058.38 0.898386 1058.51 0.607507 1058.76 0.367415C1059.02 0.122707 1059.33 0.000353404 1059.69 0.000353404C1060.05 0.000353404 1060.36 0.122707 1060.61 0.367415C1060.87 0.607507 1061 0.898386 1061 1.24005C1061 1.57711 1060.87 1.86798 1060.61 2.11269C1060.36 2.35278 1060.05 2.47283 1059.69 2.47283ZM1069.77 7.86103V9.65478H1063.48V7.86103H1069.77ZM1071.93 14.7521V13.2007L1076.73 8.22809C1077.24 7.68788 1077.66 7.21463 1077.99 6.80832C1078.33 6.3974 1078.58 6.00725 1078.75 5.63788C1078.92 5.26851 1079 4.87605 1079 4.46051C1079 3.98956 1078.89 3.58325 1078.67 3.24158C1078.44 2.8953 1078.14 2.62981 1077.76 2.44513C1077.38 2.25582 1076.94 2.16117 1076.46 2.16117C1075.96 2.16117 1075.51 2.26506 1075.13 2.47283C1074.76 2.6806 1074.46 2.97379 1074.26 3.35239C1074.06 3.731 1073.96 4.17424 1073.96 4.68213H1071.91C1071.91 3.81872 1072.11 3.06382 1072.51 2.41742C1072.91 1.77103 1073.45 1.27007 1074.14 0.914546C1074.84 0.55441 1075.62 0.374341 1076.51 0.374341C1077.4 0.374341 1078.18 0.552101 1078.86 0.90762C1079.54 1.25852 1080.08 1.7387 1080.46 2.34817C1080.84 2.95301 1081.03 3.63635 1081.03 4.39818C1081.03 4.92453 1080.94 5.43934 1080.74 5.94261C1080.54 6.44588 1080.2 7.00686 1079.72 7.62555C1079.23 8.23963 1078.56 8.9853 1077.7 9.86256L1074.88 12.8129V12.9168H1081.26V14.7521H1071.93ZM1085.28 14.8837C1084.9 14.8837 1084.58 14.7498 1084.3 14.482C1084.03 14.2096 1083.9 13.8818 1083.9 13.4986C1083.9 13.1199 1084.03 12.7967 1084.3 12.529C1084.58 12.2565 1084.9 12.1203 1085.28 12.1203C1085.66 12.1203 1085.98 12.2565 1086.26 12.529C1086.53 12.7967 1086.67 13.1199 1086.67 13.4986C1086.67 13.7525 1086.6 13.9857 1086.47 14.198C1086.35 14.4058 1086.18 14.572 1085.97 14.6967C1085.77 14.8214 1085.53 14.8837 1085.28 14.8837ZM1093.86 14.946C1093 14.946 1092.22 14.7798 1091.52 14.4474C1090.84 14.1103 1090.29 13.6486 1089.88 13.0622C1089.46 12.4759 1089.25 11.8064 1089.22 11.0538H1091.3C1091.35 11.6632 1091.62 12.1642 1092.11 12.5567C1092.6 12.9491 1093.18 13.1453 1093.86 13.1453C1094.41 13.1453 1094.89 13.0207 1095.31 12.7714C1095.74 12.5174 1096.07 12.1688 1096.31 11.7256C1096.55 11.2823 1096.68 10.7767 1096.68 10.2088C1096.68 9.6317 1096.55 9.11689 1096.3 8.66441C1096.05 8.21193 1095.71 7.85641 1095.27 7.59785C1094.84 7.33929 1094.34 7.2077 1093.77 7.20309C1093.35 7.20309 1092.91 7.27696 1092.48 7.42471C1092.05 7.57246 1091.69 7.76638 1091.43 8.00647L1089.47 7.71559L1090.26 0.568261H1098.06V2.40357H1092.04L1091.59 6.372H1091.68C1091.95 6.10421 1092.32 5.88028 1092.78 5.70021C1093.24 5.52014 1093.73 5.43011 1094.26 5.43011C1095.12 5.43011 1095.89 5.63557 1096.57 6.04649C1097.24 6.45742 1097.78 7.0184 1098.17 7.72944C1098.56 8.43586 1098.75 9.24848 1098.75 10.1673C1098.75 11.0861 1098.54 11.9056 1098.12 12.6259C1097.71 13.3462 1097.13 13.9141 1096.39 14.3296C1095.66 14.7406 1094.82 14.946 1093.86 14.946ZM1107.57 6.75984V8.56052H1101.28V6.75984H1107.57ZM1110.5 14.7521V0.568261H1119.29V2.4105H1112.64V6.73214H1118.66V8.56745H1112.64V14.7521H1110.5ZM1123.83 0.568261V14.7521H1121.76V0.568261H1123.83ZM1129.71 14.9876C1129.04 14.9876 1128.43 14.8629 1127.88 14.6136C1127.34 14.3596 1126.91 13.9926 1126.59 13.5124C1126.27 13.0322 1126.12 12.4435 1126.12 11.7463C1126.12 11.1461 1126.23 10.6521 1126.46 10.2642C1126.69 9.87641 1127.01 9.56937 1127.4 9.34313C1127.79 9.11689 1128.23 8.94605 1128.71 8.83063C1129.2 8.7152 1129.69 8.62747 1130.2 8.56745C1130.83 8.49357 1131.35 8.43355 1131.75 8.38738C1132.15 8.33659 1132.43 8.25579 1132.61 8.14498C1132.79 8.03417 1132.88 7.8541 1132.88 7.60478V7.5563C1132.88 6.95145 1132.71 6.48281 1132.37 6.15038C1132.03 5.81794 1131.53 5.65173 1130.86 5.65173C1130.16 5.65173 1129.62 5.8064 1129.21 6.11575C1128.82 6.42048 1128.54 6.75984 1128.39 7.13383L1126.44 6.69058C1126.67 6.04418 1127.01 5.52245 1127.45 5.12537C1127.9 4.72368 1128.42 4.4328 1129 4.25274C1129.58 4.06805 1130.19 3.97571 1130.83 3.97571C1131.26 3.97571 1131.71 4.0265 1132.18 4.12807C1132.66 4.22503 1133.11 4.4051 1133.53 4.66828C1133.95 4.93145 1134.29 5.30775 1134.56 5.79717C1134.83 6.28197 1134.96 6.91221 1134.96 7.68789V14.7521H1132.94V13.2977H1132.86C1132.72 13.5655 1132.52 13.8287 1132.25 14.0872C1131.99 14.3458 1131.64 14.5605 1131.22 14.7313C1130.8 14.9022 1130.3 14.9876 1129.71 14.9876ZM1130.16 13.3254C1130.73 13.3254 1131.22 13.2123 1131.63 12.986C1132.04 12.7598 1132.35 12.4643 1132.57 12.0996C1132.78 11.7302 1132.89 11.3354 1132.89 10.9153V9.54397C1132.82 9.61785 1132.67 9.6871 1132.46 9.75174C1132.25 9.81177 1132.02 9.86486 1131.75 9.91104C1131.48 9.95259 1131.22 9.99184 1130.97 10.0288C1130.71 10.0611 1130.5 10.0888 1130.33 10.1119C1129.93 10.1627 1129.56 10.2481 1129.23 10.3681C1128.9 10.4882 1128.64 10.6613 1128.44 10.8876C1128.24 11.1092 1128.15 11.4047 1128.15 11.7741C1128.15 12.2866 1128.34 12.6744 1128.71 12.9376C1129.09 13.1961 1129.58 13.3254 1130.16 13.3254ZM1145.69 6.71136L1143.81 7.04379C1143.74 6.8037 1143.61 6.57515 1143.44 6.35815C1143.27 6.14114 1143.05 5.96338 1142.76 5.82487C1142.48 5.68636 1142.12 5.6171 1141.69 5.6171C1141.1 5.6171 1140.61 5.74869 1140.22 6.01186C1139.83 6.27042 1139.63 6.60517 1139.63 7.01609C1139.63 7.37161 1139.76 7.65787 1140.03 7.87488C1140.29 8.09188 1140.71 8.26964 1141.3 8.40816L1142.99 8.796C1143.97 9.02224 1144.7 9.37083 1145.18 9.84178C1145.66 10.3127 1145.9 10.9245 1145.9 11.6771C1145.9 12.3143 1145.71 12.8822 1145.35 13.3808C1144.98 13.8748 1144.47 14.2627 1143.81 14.5443C1143.16 14.826 1142.41 14.9668 1141.55 14.9668C1140.36 14.9668 1139.39 14.7129 1138.63 14.205C1137.88 13.6925 1137.42 12.9653 1137.25 12.0234L1139.25 11.7186C1139.38 12.2404 1139.63 12.6351 1140.02 12.9029C1140.41 13.1661 1140.91 13.2977 1141.54 13.2977C1142.21 13.2977 1142.76 13.1569 1143.16 12.8752C1143.57 12.589 1143.77 12.2404 1143.77 11.8295C1143.77 11.497 1143.65 11.2177 1143.4 10.9914C1143.15 10.7652 1142.78 10.5944 1142.27 10.4789L1140.47 10.0842C1139.48 9.85794 1138.74 9.4978 1138.27 9.00377C1137.8 8.50974 1137.56 7.88411 1137.56 7.1269C1137.56 6.49897 1137.74 5.94953 1138.09 5.47859C1138.44 5.00764 1138.92 4.64058 1139.54 4.3774C1140.16 4.1096 1140.87 3.97571 1141.67 3.97571C1142.82 3.97571 1143.72 4.22503 1144.38 4.72368C1145.04 5.21772 1145.48 5.88028 1145.69 6.71136ZM1150.25 8.43586V14.7521H1148.18V0.568261H1150.22V5.84565H1150.35C1150.6 5.27312 1150.98 4.81833 1151.49 4.48128C1152.01 4.14423 1152.68 3.97571 1153.5 3.97571C1154.23 3.97571 1154.87 4.12576 1155.41 4.42588C1155.96 4.72599 1156.39 5.17385 1156.69 5.76946C1156.99 6.36046 1157.14 7.0992 1157.14 7.98569V14.7521H1155.07V8.23502C1155.07 7.45472 1154.87 6.84987 1154.47 6.42048C1154.07 5.98647 1153.51 5.76946 1152.8 5.76946C1152.31 5.76946 1151.87 5.87335 1151.48 6.08112C1151.1 6.28889 1150.79 6.59362 1150.57 6.99531C1150.36 7.39239 1150.25 7.87257 1150.25 8.43586Z" fill="#F0EAEA"/>
<path d="M1206.2 18.9629C1205.36 18.9629 1204.63 18.8521 1204.02 18.6305C1203.42 18.4089 1202.92 18.1157 1202.54 17.7509C1202.16 17.3862 1201.87 16.9868 1201.68 16.5528L1203.46 15.8187C1203.58 16.0218 1203.75 16.2365 1203.96 16.4628C1204.17 16.6936 1204.46 16.8898 1204.82 17.0514C1205.18 17.213 1205.65 17.2938 1206.22 17.2938C1207.01 17.2938 1207.66 17.1022 1208.17 16.719C1208.68 16.3404 1208.94 15.7356 1208.94 14.9045V12.8129H1208.81C1208.68 13.0391 1208.5 13.2908 1208.27 13.5678C1208.04 13.8448 1207.72 14.0849 1207.31 14.2881C1206.9 14.4912 1206.38 14.5928 1205.72 14.5928C1204.88 14.5928 1204.13 14.3966 1203.45 14.0041C1202.78 13.6071 1202.25 13.023 1201.86 12.2519C1201.47 11.4762 1201.28 10.5228 1201.28 9.39161C1201.28 8.26041 1201.47 7.29081 1201.85 6.48281C1202.24 5.67481 1202.77 5.05612 1203.45 4.62672C1204.12 4.19271 1204.88 3.97571 1205.74 3.97571C1206.4 3.97571 1206.93 4.08652 1207.34 4.30814C1207.74 4.52515 1208.06 4.77909 1208.29 5.06997C1208.52 5.36085 1208.7 5.6171 1208.82 5.83872H1208.97V4.11422H1211V14.9876C1211 15.9018 1210.79 16.6521 1210.36 17.2384C1209.94 17.8248 1209.37 18.2588 1208.64 18.5405C1207.92 18.8221 1207.11 18.9629 1206.2 18.9629ZM1206.18 12.8752C1206.78 12.8752 1207.28 12.7367 1207.69 12.4597C1208.11 12.178 1208.42 11.7764 1208.63 11.2546C1208.85 10.7283 1208.96 10.098 1208.96 9.36391C1208.96 8.64825 1208.85 8.01801 1208.64 7.47319C1208.43 6.92837 1208.12 6.50359 1207.71 6.19886C1207.29 5.88951 1206.79 5.73484 1206.18 5.73484C1205.56 5.73484 1205.04 5.89644 1204.62 6.21964C1204.21 6.53822 1203.89 6.97223 1203.68 7.52167C1203.47 8.07111 1203.37 8.68519 1203.37 9.36391C1203.37 10.0611 1203.48 10.6729 1203.69 11.1992C1203.9 11.7256 1204.21 12.1365 1204.63 12.432C1205.05 12.7275 1205.57 12.8752 1206.18 12.8752ZM1213.78 18.7413V4.11422H1215.8V5.83872H1215.97C1216.09 5.6171 1216.27 5.36085 1216.49 5.06997C1216.72 4.77909 1217.03 4.52515 1217.44 4.30814C1217.84 4.08652 1218.37 3.97571 1219.03 3.97571C1219.89 3.97571 1220.65 4.19271 1221.33 4.62672C1222 5.06073 1222.53 5.68636 1222.91 6.50359C1223.3 7.32082 1223.5 8.30427 1223.5 9.45394C1223.5 10.6036 1223.3 11.5894 1222.92 12.4112C1222.54 13.2284 1222.01 13.8587 1221.34 14.3019C1220.67 14.7406 1219.91 14.9599 1219.05 14.9599C1218.4 14.9599 1217.87 14.8514 1217.46 14.6344C1217.06 14.4174 1216.74 14.1634 1216.51 13.8725C1216.28 13.5817 1216.1 13.3231 1215.97 13.0969H1215.85V18.7413H1213.78ZM1215.81 9.43316C1215.81 10.1811 1215.92 10.8368 1216.13 11.4001C1216.35 11.9634 1216.66 12.4043 1217.08 12.7229C1217.49 13.0368 1217.99 13.1938 1218.59 13.1938C1219.2 13.1938 1219.72 13.0299 1220.14 12.7021C1220.55 12.3697 1220.87 11.9195 1221.08 11.3516C1221.3 10.7837 1221.4 10.1442 1221.4 9.43316C1221.4 8.73136 1221.3 8.10112 1221.09 7.54244C1220.88 6.98377 1220.56 6.54284 1220.14 6.21964C1219.73 5.89644 1219.21 5.73484 1218.59 5.73484C1217.99 5.73484 1217.48 5.88951 1217.06 6.19886C1216.65 6.50821 1216.34 6.93991 1216.13 7.49397C1215.91 8.04802 1215.81 8.69442 1215.81 9.43316ZM1230.78 4.11422V5.77639H1224.97V4.11422H1230.78ZM1226.53 1.56556H1228.6V11.6286C1228.6 12.0303 1228.66 12.3327 1228.78 12.5359C1228.9 12.7344 1229.05 12.8706 1229.24 12.9445C1229.44 13.0138 1229.65 13.0484 1229.87 13.0484C1230.04 13.0484 1230.19 13.0368 1230.31 13.0138C1230.44 12.9907 1230.53 12.9722 1230.6 12.9583L1230.98 14.669C1230.86 14.7152 1230.68 14.7613 1230.46 14.8075C1230.24 14.8583 1229.96 14.886 1229.63 14.8906C1229.09 14.8999 1228.58 14.8029 1228.11 14.5997C1227.64 14.3966 1227.26 14.0826 1226.97 13.6578C1226.67 13.2331 1226.53 12.6998 1226.53 12.058V1.56556ZM1238.98 7.86103V9.65478H1232.69V7.86103H1238.98ZM1246.39 14.946C1245.52 14.946 1244.74 14.7798 1244.05 14.4474C1243.36 14.1103 1242.81 13.6486 1242.4 13.0622C1241.99 12.4759 1241.77 11.8064 1241.75 11.0538H1243.82C1243.87 11.6632 1244.14 12.1642 1244.63 12.5567C1245.12 12.9491 1245.71 13.1453 1246.39 13.1453C1246.94 13.1453 1247.42 13.0207 1247.84 12.7714C1248.26 12.5174 1248.6 12.1688 1248.84 11.7256C1249.08 11.2823 1249.2 10.7767 1249.2 10.2088C1249.2 9.6317 1249.08 9.11689 1248.83 8.66441C1248.58 8.21193 1248.24 7.85641 1247.8 7.59785C1247.36 7.33929 1246.87 7.2077 1246.3 7.20309C1245.87 7.20309 1245.44 7.27696 1245.01 7.42471C1244.57 7.57246 1244.22 7.76638 1243.95 8.00647L1241.99 7.71559L1242.79 0.568261H1250.59V2.40357H1244.57L1244.12 6.372H1244.2C1244.48 6.10421 1244.85 5.88028 1245.3 5.70021C1245.77 5.52014 1246.26 5.43011 1246.79 5.43011C1247.65 5.43011 1248.42 5.63557 1249.09 6.04649C1249.77 6.45742 1250.31 7.0184 1250.69 7.72944C1251.09 8.43586 1251.28 9.24848 1251.27 10.1673C1251.28 11.0861 1251.07 11.9056 1250.65 12.6259C1250.24 13.3462 1249.66 13.9141 1248.92 14.3296C1248.19 14.7406 1247.34 14.946 1246.39 14.946ZM1260.1 7.86103V9.65478H1253.81V7.86103H1260.1ZM1264.93 8.43586V14.7521H1262.86V4.11422H1264.85V5.84565H1264.98C1265.22 5.28236 1265.61 4.82988 1266.13 4.48821C1266.66 4.14654 1267.32 3.97571 1268.12 3.97571C1268.84 3.97571 1269.48 4.12807 1270.02 4.4328C1270.57 4.73292 1270.99 5.18078 1271.29 5.77639C1271.59 6.372 1271.74 7.10843 1271.74 7.98569V14.7521H1269.67V8.23502C1269.67 7.46395 1269.47 6.86142 1269.07 6.42741C1268.66 5.98878 1268.11 5.76946 1267.41 5.76946C1266.93 5.76946 1266.5 5.87335 1266.13 6.08112C1265.76 6.28889 1265.47 6.59362 1265.25 6.99531C1265.04 7.39239 1264.93 7.87257 1264.93 8.43586ZM1277.61 14.9876C1276.94 14.9876 1276.33 14.8629 1275.78 14.6136C1275.24 14.3596 1274.81 13.9926 1274.49 13.5124C1274.17 13.0322 1274.02 12.4435 1274.02 11.7463C1274.02 11.1461 1274.13 10.6521 1274.36 10.2642C1274.59 9.87641 1274.91 9.56937 1275.3 9.34313C1275.69 9.11689 1276.13 8.94605 1276.61 8.83063C1277.1 8.7152 1277.59 8.62747 1278.1 8.56745C1278.73 8.49357 1279.25 8.43355 1279.65 8.38738C1280.04 8.33659 1280.33 8.25579 1280.51 8.14498C1280.69 8.03417 1280.78 7.8541 1280.78 7.60478V7.5563C1280.78 6.95145 1280.61 6.48281 1280.27 6.15038C1279.93 5.81794 1279.43 5.65173 1278.76 5.65173C1278.06 5.65173 1277.51 5.8064 1277.11 6.11575C1276.72 6.42048 1276.44 6.75984 1276.29 7.13383L1274.34 6.69058C1274.57 6.04418 1274.91 5.52245 1275.35 5.12537C1275.8 4.72368 1276.32 4.4328 1276.9 4.25274C1277.48 4.06805 1278.09 3.97571 1278.73 3.97571C1279.16 3.97571 1279.61 4.0265 1280.08 4.12807C1280.56 4.22503 1281.01 4.4051 1281.43 4.66828C1281.85 4.93145 1282.19 5.30775 1282.46 5.79717C1282.73 6.28197 1282.86 6.91221 1282.86 7.68789V14.7521H1280.84V13.2977H1280.76C1280.62 13.5655 1280.42 13.8287 1280.15 14.0872C1279.89 14.3458 1279.54 14.5605 1279.12 14.7313C1278.7 14.9022 1278.2 14.9876 1277.61 14.9876ZM1278.06 13.3254C1278.63 13.3254 1279.12 13.2123 1279.53 12.986C1279.94 12.7598 1280.25 12.4643 1280.46 12.0996C1280.68 11.7302 1280.79 11.3354 1280.79 10.9153V9.54397C1280.72 9.61785 1280.57 9.6871 1280.36 9.75174C1280.15 9.81177 1279.92 9.86486 1279.65 9.91104C1279.38 9.95259 1279.12 9.99184 1278.87 10.0288C1278.61 10.0611 1278.4 10.0888 1278.23 10.1119C1277.83 10.1627 1277.46 10.2481 1277.13 10.3681C1276.8 10.4882 1276.54 10.6613 1276.34 10.8876C1276.14 11.1092 1276.05 11.4047 1276.05 11.7741C1276.05 12.2866 1276.24 12.6744 1276.61 12.9376C1276.99 13.1961 1277.48 13.3254 1278.06 13.3254ZM1287.69 8.43586V14.7521H1285.62V4.11422H1287.61V5.84565H1287.74C1287.98 5.28236 1288.37 4.82988 1288.89 4.48821C1289.41 4.14654 1290.08 3.97571 1290.88 3.97571C1291.6 3.97571 1292.24 4.12807 1292.78 4.4328C1293.33 4.73292 1293.75 5.18078 1294.05 5.77639C1294.35 6.372 1294.5 7.10843 1294.5 7.98569V14.7521H1292.43V8.23502C1292.43 7.46395 1292.23 6.86142 1291.82 6.42741C1291.42 5.98878 1290.87 5.76946 1290.17 5.76946C1289.69 5.76946 1289.26 5.87335 1288.89 6.08112C1288.52 6.28889 1288.23 6.59362 1288.01 6.99531C1287.8 7.39239 1287.69 7.87257 1287.69 8.43586ZM1301.76 14.9668C1300.76 14.9668 1299.89 14.7383 1299.15 14.2812C1298.4 13.8241 1297.82 13.1846 1297.41 12.3627C1297 11.5409 1296.8 10.5805 1296.8 9.48164C1296.8 8.37815 1297 7.41317 1297.41 6.5867C1297.82 5.76023 1298.4 5.11845 1299.15 4.66135C1299.89 4.20426 1300.76 3.97571 1301.76 3.97571C1302.75 3.97571 1303.62 4.20426 1304.37 4.66135C1305.11 5.11845 1305.69 5.76023 1306.1 6.5867C1306.51 7.41317 1306.72 8.37815 1306.72 9.48164C1306.72 10.5805 1306.51 11.5409 1306.1 12.3627C1305.69 13.1846 1305.11 13.8241 1304.37 14.2812C1303.62 14.7383 1302.75 14.9668 1301.76 14.9668ZM1301.76 13.2284C1302.41 13.2284 1302.95 13.0576 1303.37 12.7159C1303.79 12.3743 1304.11 11.9195 1304.31 11.3516C1304.52 10.7837 1304.62 10.1581 1304.62 9.47472C1304.62 8.796 1304.52 8.17268 1304.31 7.60478C1304.11 7.03225 1303.79 6.57285 1303.37 6.22656C1302.95 5.88028 1302.41 5.70713 1301.76 5.70713C1301.11 5.70713 1300.57 5.88028 1300.14 6.22656C1299.72 6.57285 1299.4 7.03225 1299.19 7.60478C1298.99 8.17268 1298.89 8.796 1298.89 9.47472C1298.89 10.1581 1298.99 10.7837 1299.19 11.3516C1299.4 11.9195 1299.72 12.3743 1300.14 12.7159C1300.57 13.0576 1301.11 13.2284 1301.76 13.2284Z" fill="#F0EAEA"/>
<path d="M1355.52 18.9629C1354.67 18.9629 1353.94 18.8521 1353.33 18.6305C1352.73 18.4089 1352.24 18.1157 1351.85 17.7509C1351.47 17.3862 1351.18 16.9868 1350.99 16.5528L1352.77 15.8187C1352.9 16.0218 1353.06 16.2365 1353.27 16.4628C1353.48 16.6936 1353.77 16.8898 1354.13 17.0514C1354.5 17.213 1354.96 17.2938 1355.54 17.2938C1356.32 17.2938 1356.97 17.1022 1357.48 16.719C1357.99 16.3404 1358.25 15.7356 1358.25 14.9045V12.8129H1358.12C1357.99 13.0391 1357.81 13.2908 1357.58 13.5678C1357.35 13.8448 1357.03 14.0849 1356.62 14.2881C1356.22 14.4912 1355.69 14.5928 1355.04 14.5928C1354.2 14.5928 1353.44 14.3966 1352.77 14.0041C1352.1 13.6071 1351.57 13.023 1351.17 12.2519C1350.79 11.4762 1350.59 10.5228 1350.59 9.39161C1350.59 8.26041 1350.78 7.29081 1351.17 6.48281C1351.55 5.67481 1352.09 5.05612 1352.76 4.62672C1353.43 4.19271 1354.2 3.97571 1355.05 3.97571C1355.71 3.97571 1356.25 4.08652 1356.65 4.30814C1357.06 4.52515 1357.37 4.77909 1357.6 5.06997C1357.83 5.36085 1358.01 5.6171 1358.13 5.83872H1358.29V4.11422H1360.32V14.9876C1360.32 15.9018 1360.1 16.6521 1359.68 17.2384C1359.25 17.8248 1358.68 18.2588 1357.95 18.5405C1357.23 18.8221 1356.42 18.9629 1355.52 18.9629ZM1355.49 12.8752C1356.09 12.8752 1356.59 12.7367 1357 12.4597C1357.42 12.178 1357.73 11.7764 1357.95 11.2546C1358.16 10.7283 1358.27 10.098 1358.27 9.36391C1358.27 8.64825 1358.17 8.01801 1357.95 7.47319C1357.74 6.92837 1357.43 6.50359 1357.02 6.19886C1356.61 5.88951 1356.1 5.73484 1355.49 5.73484C1354.87 5.73484 1354.35 5.89644 1353.94 6.21964C1353.52 6.53822 1353.21 6.97223 1352.99 7.52167C1352.79 8.07111 1352.68 8.68519 1352.68 9.36391C1352.68 10.0611 1352.79 10.6729 1353 11.1992C1353.21 11.7256 1353.53 12.1365 1353.94 12.432C1354.36 12.7275 1354.88 12.8752 1355.49 12.8752ZM1367.68 14.9668C1366.63 14.9668 1365.73 14.7429 1364.97 14.295C1364.22 13.8425 1363.63 13.2077 1363.22 12.3904C1362.82 11.5686 1362.61 10.6059 1362.61 9.50242C1362.61 8.41278 1362.82 7.45241 1363.22 6.62133C1363.63 5.79024 1364.21 5.14153 1364.94 4.6752C1365.68 4.20887 1366.54 3.97571 1367.53 3.97571C1368.13 3.97571 1368.71 4.07498 1369.28 4.27351C1369.84 4.47205 1370.35 4.78371 1370.79 5.20848C1371.24 5.63326 1371.59 6.18501 1371.85 6.86373C1372.11 7.53783 1372.24 8.35737 1372.24 9.32235V10.0565H1363.78V8.50512H1370.21C1370.21 7.9603 1370.1 7.47781 1369.88 7.05765C1369.66 6.63287 1369.35 6.29813 1368.94 6.05342C1368.55 5.80871 1368.08 5.68636 1367.55 5.68636C1366.96 5.68636 1366.46 5.82949 1366.02 6.11575C1365.59 6.3974 1365.26 6.76677 1365.02 7.22386C1364.79 7.67634 1364.68 8.16807 1364.68 8.69904V9.91104C1364.68 10.6221 1364.8 11.2269 1365.05 11.7256C1365.31 12.2242 1365.66 12.6051 1366.11 12.8683C1366.56 13.1269 1367.09 13.2562 1367.7 13.2562C1368.09 13.2562 1368.45 13.2007 1368.77 13.0899C1369.09 12.9745 1369.37 12.8037 1369.61 12.5774C1369.84 12.3512 1370.02 12.0719 1370.15 11.7394L1372.11 12.0926C1371.95 12.6698 1371.67 13.1754 1371.26 13.6094C1370.86 14.0388 1370.36 14.3735 1369.75 14.6136C1369.14 14.8491 1368.45 14.9668 1367.68 14.9668ZM1374.54 14.7521V4.11422H1376.53V5.84565H1376.66C1376.88 5.25927 1377.24 4.80218 1377.75 4.47436C1378.25 4.14192 1378.85 3.97571 1379.55 3.97571C1380.26 3.97571 1380.86 4.14192 1381.34 4.47436C1381.82 4.80679 1382.18 5.26389 1382.41 5.84565H1382.52C1382.78 5.27774 1383.18 4.82526 1383.74 4.48821C1384.29 4.14654 1384.95 3.97571 1385.72 3.97571C1386.68 3.97571 1387.47 4.27813 1388.08 4.88297C1388.69 5.48782 1389 6.3997 1389 7.61863V14.7521H1386.93V7.81255C1386.93 7.09227 1386.73 6.57054 1386.34 6.24734C1385.95 5.92414 1385.48 5.76254 1384.93 5.76254C1384.26 5.76254 1383.74 5.97031 1383.36 6.38585C1382.99 6.79678 1382.8 7.32544 1382.8 7.97184V14.7521H1380.74V7.68096C1380.74 7.10382 1380.56 6.63979 1380.2 6.28889C1379.84 5.93799 1379.37 5.76254 1378.79 5.76254C1378.4 5.76254 1378.04 5.86642 1377.7 6.0742C1377.38 6.27735 1377.11 6.5613 1376.91 6.92606C1376.71 7.29081 1376.61 7.71328 1376.61 8.19346V14.7521H1374.54ZM1391.78 14.7521V4.11422H1393.85V14.7521H1391.78ZM1392.82 2.47283C1392.46 2.47283 1392.15 2.35278 1391.89 2.11269C1391.64 1.86798 1391.51 1.57711 1391.51 1.24005C1391.51 0.898386 1391.64 0.607507 1391.89 0.367415C1392.15 0.122707 1392.46 0.000353404 1392.82 0.000353404C1393.18 0.000353404 1393.49 0.122707 1393.74 0.367415C1394 0.607507 1394.13 0.898386 1394.13 1.24005C1394.13 1.57711 1394 1.86798 1393.74 2.11269C1393.49 2.35278 1393.18 2.47283 1392.82 2.47283ZM1398.7 8.43586V14.7521H1396.63V4.11422H1398.62V5.84565H1398.75C1399 5.28236 1399.38 4.82988 1399.9 4.48821C1400.43 4.14654 1401.09 3.97571 1401.89 3.97571C1402.61 3.97571 1403.25 4.12807 1403.79 4.4328C1404.34 4.73292 1404.76 5.18078 1405.06 5.77639C1405.36 6.372 1405.51 7.10843 1405.51 7.98569V14.7521H1403.44V8.23502C1403.44 7.46395 1403.24 6.86142 1402.84 6.42741C1402.44 5.98878 1401.88 5.76946 1401.18 5.76946C1400.7 5.76946 1400.27 5.87335 1399.9 6.08112C1399.53 6.28889 1399.24 6.59362 1399.02 6.99531C1398.81 7.39239 1398.7 7.87257 1398.7 8.43586ZM1408.29 14.7521V4.11422H1410.36V14.7521H1408.29ZM1409.33 2.47283C1408.97 2.47283 1408.66 2.35278 1408.41 2.11269C1408.15 1.86798 1408.02 1.57711 1408.02 1.24005C1408.02 0.898386 1408.15 0.607507 1408.41 0.367415C1408.66 0.122707 1408.97 0.000353404 1409.33 0.000353404C1409.69 0.000353404 1410 0.122707 1410.25 0.367415C1410.51 0.607507 1410.64 0.898386 1410.64 1.24005C1410.64 1.57711 1410.51 1.86798 1410.25 2.11269C1410 2.35278 1409.69 2.47283 1409.33 2.47283ZM1419.41 7.86103V9.65478H1413.12V7.86103H1419.41ZM1421.57 14.7521V13.2007L1426.37 8.22809C1426.88 7.68788 1427.31 7.21463 1427.64 6.80832C1427.98 6.3974 1428.23 6.00725 1428.39 5.63788C1428.56 5.26851 1428.64 4.87605 1428.64 4.46051C1428.64 3.98956 1428.53 3.58325 1428.31 3.24158C1428.09 2.8953 1427.79 2.62981 1427.4 2.44513C1427.02 2.25582 1426.59 2.16117 1426.11 2.16117C1425.6 2.16117 1425.16 2.26506 1424.78 2.47283C1424.4 2.6806 1424.11 2.97379 1423.91 3.35239C1423.7 3.731 1423.6 4.17424 1423.6 4.68213H1421.56C1421.56 3.81872 1421.76 3.06382 1422.15 2.41742C1422.55 1.77103 1423.1 1.27007 1423.79 0.914546C1424.48 0.55441 1425.27 0.374341 1426.15 0.374341C1427.04 0.374341 1427.83 0.552101 1428.51 0.90762C1429.19 1.25852 1429.72 1.7387 1430.11 2.34817C1430.49 2.95301 1430.68 3.63635 1430.68 4.39818C1430.68 4.92453 1430.58 5.43934 1430.38 5.94261C1430.19 6.44588 1429.85 7.00686 1429.36 7.62555C1428.88 8.23963 1428.21 8.9853 1427.34 9.86256L1424.52 12.8129V12.9168H1430.91V14.7521H1421.57ZM1434.93 14.8837C1434.55 14.8837 1434.22 14.7498 1433.95 14.482C1433.68 14.2096 1433.54 13.8818 1433.54 13.4986C1433.54 13.1199 1433.68 12.7967 1433.95 12.529C1434.22 12.2565 1434.55 12.1203 1434.93 12.1203C1435.3 12.1203 1435.63 12.2565 1435.9 12.529C1436.17 12.7967 1436.31 13.1199 1436.31 13.4986C1436.31 13.7525 1436.25 13.9857 1436.12 14.198C1435.99 14.4058 1435.83 14.572 1435.62 14.6967C1435.41 14.8214 1435.18 14.8837 1434.93 14.8837ZM1443.48 14.9876C1442.39 14.983 1441.45 14.6944 1440.68 14.1219C1439.9 13.5493 1439.31 12.7159 1438.9 11.6217C1438.48 10.5274 1438.28 9.20923 1438.28 7.66711C1438.28 6.1296 1438.48 4.81603 1438.9 3.72638C1439.31 2.63674 1439.91 1.80565 1440.68 1.23313C1441.46 0.660604 1442.4 0.374341 1443.48 0.374341C1444.57 0.374341 1445.5 0.662912 1446.27 1.24005C1447.05 1.81258 1447.64 2.64366 1448.05 3.73331C1448.47 4.81833 1448.67 6.1296 1448.67 7.66711C1448.67 9.21385 1448.47 10.5343 1448.06 11.6286C1447.65 12.7183 1447.05 13.5516 1446.28 14.1288C1445.5 14.7013 1444.57 14.9876 1443.48 14.9876ZM1443.48 13.1384C1444.44 13.1384 1445.19 12.6698 1445.73 11.7325C1446.28 10.7952 1446.55 9.44009 1446.55 7.66711C1446.55 6.48974 1446.42 5.49475 1446.17 4.68213C1445.93 3.8649 1445.58 3.2462 1445.12 2.82604C1444.66 2.40126 1444.11 2.18888 1443.48 2.18888C1442.52 2.18888 1441.77 2.65982 1441.23 3.60172C1440.68 4.54362 1440.41 5.89874 1440.41 7.66711C1440.41 8.84909 1440.53 9.8487 1440.77 10.6659C1441.02 11.4786 1441.38 12.0949 1441.83 12.5151C1442.29 12.9306 1442.84 13.1384 1443.48 13.1384ZM1457.43 6.75984V8.56052H1451.14V6.75984H1457.43ZM1460.35 14.7521V0.568261H1469.15V2.4105H1462.49V6.73214H1468.52V8.56745H1462.49V14.7521H1460.35ZM1473.69 0.568261V14.7521H1471.61V0.568261H1473.69ZM1479.57 14.9876C1478.89 14.9876 1478.28 14.8629 1477.74 14.6136C1477.19 14.3596 1476.76 13.9926 1476.44 13.5124C1476.13 13.0322 1475.97 12.4435 1475.97 11.7463C1475.97 11.1461 1476.09 10.6521 1476.32 10.2642C1476.55 9.87641 1476.86 9.56937 1477.25 9.34313C1477.65 9.11689 1478.08 8.94605 1478.57 8.83063C1479.05 8.7152 1479.55 8.62747 1480.05 8.56745C1480.69 8.49357 1481.21 8.43355 1481.6 8.38738C1482 8.33659 1482.29 8.25579 1482.47 8.14498C1482.65 8.03417 1482.74 7.8541 1482.74 7.60478V7.5563C1482.74 6.95145 1482.57 6.48281 1482.23 6.15038C1481.89 5.81794 1481.39 5.65173 1480.72 5.65173C1480.02 5.65173 1479.47 5.8064 1479.07 6.11575C1478.67 6.42048 1478.4 6.75984 1478.24 7.13383L1476.3 6.69058C1476.53 6.04418 1476.87 5.52245 1477.31 5.12537C1477.76 4.72368 1478.27 4.4328 1478.85 4.25274C1479.44 4.06805 1480.05 3.97571 1480.69 3.97571C1481.11 3.97571 1481.56 4.0265 1482.04 4.12807C1482.52 4.22503 1482.97 4.4051 1483.38 4.66828C1483.8 4.93145 1484.15 5.30775 1484.42 5.79717C1484.68 6.28197 1484.82 6.91221 1484.82 7.68789V14.7521H1482.79V13.2977H1482.71C1482.58 13.5655 1482.38 13.8287 1482.11 14.0872C1481.84 14.3458 1481.5 14.5605 1481.08 14.7313C1480.66 14.9022 1480.15 14.9876 1479.57 14.9876ZM1480.02 13.3254C1480.59 13.3254 1481.08 13.2123 1481.49 12.986C1481.9 12.7598 1482.21 12.4643 1482.42 12.0996C1482.64 11.7302 1482.75 11.3354 1482.75 10.9153V9.54397C1482.67 9.61785 1482.53 9.6871 1482.32 9.75174C1482.11 9.81177 1481.87 9.86486 1481.6 9.91104C1481.34 9.95259 1481.07 9.99184 1480.82 10.0288C1480.57 10.0611 1480.35 10.0888 1480.18 10.1119C1479.78 10.1627 1479.41 10.2481 1479.08 10.3681C1478.75 10.4882 1478.49 10.6613 1478.29 10.8876C1478.1 11.1092 1478 11.4047 1478 11.7741C1478 12.2866 1478.19 12.6744 1478.57 12.9376C1478.95 13.1961 1479.43 13.3254 1480.02 13.3254ZM1495.55 6.71136L1493.67 7.04379C1493.59 6.8037 1493.47 6.57515 1493.3 6.35815C1493.13 6.14114 1492.9 5.96338 1492.62 5.82487C1492.33 5.68636 1491.97 5.6171 1491.54 5.6171C1490.96 5.6171 1490.47 5.74869 1490.08 6.01186C1489.68 6.27042 1489.49 6.60517 1489.49 7.01609C1489.49 7.37161 1489.62 7.65787 1489.88 7.87488C1490.14 8.09188 1490.57 8.26964 1491.16 8.40816L1492.85 8.796C1493.82 9.02224 1494.55 9.37083 1495.03 9.84178C1495.51 10.3127 1495.75 10.9245 1495.75 11.6771C1495.75 12.3143 1495.57 12.8822 1495.2 13.3808C1494.84 13.8748 1494.33 14.2627 1493.67 14.5443C1493.02 14.826 1492.26 14.9668 1491.4 14.9668C1490.21 14.9668 1489.24 14.7129 1488.49 14.205C1487.74 13.6925 1487.27 12.9653 1487.1 12.0234L1489.11 11.7186C1489.23 12.2404 1489.49 12.6351 1489.87 12.9029C1490.26 13.1661 1490.77 13.2977 1491.39 13.2977C1492.07 13.2977 1492.61 13.1569 1493.02 12.8752C1493.42 12.589 1493.63 12.2404 1493.63 11.8295C1493.63 11.497 1493.5 11.2177 1493.25 10.9914C1493.01 10.7652 1492.63 10.5944 1492.13 10.4789L1490.32 10.0842C1489.33 9.85794 1488.6 9.4978 1488.12 9.00377C1487.65 8.50974 1487.42 7.88411 1487.42 7.1269C1487.42 6.49897 1487.59 5.94953 1487.94 5.47859C1488.29 5.00764 1488.78 4.64058 1489.4 4.3774C1490.02 4.1096 1490.72 3.97571 1491.52 3.97571C1492.67 3.97571 1493.58 4.22503 1494.24 4.72368C1494.9 5.21772 1495.33 5.88028 1495.55 6.71136ZM1500.1 8.43586V14.7521H1498.03V0.568261H1500.07V5.84565H1500.21C1500.45 5.27312 1500.84 4.81833 1501.35 4.48128C1501.86 4.14423 1502.53 3.97571 1503.36 3.97571C1504.09 3.97571 1504.72 4.12576 1505.27 4.42588C1505.82 4.72599 1506.24 5.17385 1506.54 5.76946C1506.85 6.36046 1507 7.0992 1507 7.98569V14.7521H1504.93V8.23502C1504.93 7.45472 1504.73 6.84987 1504.33 6.42048C1503.92 5.98647 1503.37 5.76946 1502.65 5.76946C1502.16 5.76946 1501.72 5.87335 1501.33 6.08112C1500.95 6.28889 1500.65 6.59362 1500.43 6.99531C1500.21 7.39239 1500.1 7.87257 1500.1 8.43586Z" fill="#F0EAEA"/>
<path d="M137.469 18.9629C136.624 18.9629 135.896 18.8521 135.287 18.6305C134.682 18.4089 134.188 18.1157 133.805 17.7509C133.422 17.3862 133.135 16.9868 132.946 16.5528L134.726 15.8187C134.851 16.0218 135.017 16.2365 135.225 16.4628C135.437 16.6936 135.723 16.8898 136.083 17.0514C136.448 17.213 136.917 17.2938 137.489 17.2938C138.274 17.2938 138.923 17.1022 139.436 16.719C139.948 16.3404 140.204 15.7356 140.204 14.9045V12.8129H140.073C139.948 13.0391 139.768 13.2908 139.532 13.5678C139.302 13.8448 138.983 14.0849 138.577 14.2881C138.17 14.4912 137.642 14.5928 136.991 14.5928C136.15 14.5928 135.393 14.3966 134.719 14.0041C134.05 13.6071 133.519 13.023 133.126 12.2519C132.738 11.4762 132.544 10.5228 132.544 9.39161C132.544 8.26041 132.736 7.29081 133.119 6.48281C133.507 5.67481 134.038 5.05612 134.712 4.62672C135.386 4.19271 136.15 3.97571 137.005 3.97571C137.665 3.97571 138.198 4.08652 138.604 4.30814C139.011 4.52515 139.327 4.77909 139.553 5.06997C139.784 5.36085 139.962 5.6171 140.087 5.83872H140.239V4.11422H142.268V14.9876C142.268 15.9018 142.056 16.6521 141.631 17.2384C141.206 17.8248 140.631 18.2588 139.906 18.5405C139.186 18.8221 138.374 18.9629 137.469 18.9629ZM137.448 12.8752C138.043 12.8752 138.547 12.7367 138.958 12.4597C139.373 12.178 139.687 11.7764 139.9 11.2546C140.117 10.7283 140.225 10.098 140.225 9.36391C140.225 8.64825 140.119 8.01801 139.906 7.47319C139.694 6.92837 139.382 6.50359 138.972 6.19886C138.561 5.88951 138.053 5.73484 137.448 5.73484C136.825 5.73484 136.305 5.89644 135.89 6.21964C135.474 6.53822 135.16 6.97223 134.948 7.52167C134.74 8.07111 134.636 8.68519 134.636 9.36391C134.636 10.0611 134.742 10.6729 134.955 11.1992C135.167 11.7256 135.481 12.1365 135.896 12.432C136.317 12.7275 136.834 12.8752 137.448 12.8752ZM149.63 14.9668C148.582 14.9668 147.679 14.7429 146.922 14.295C146.17 13.8425 145.588 13.2077 145.177 12.3904C144.771 11.5686 144.567 10.6059 144.567 9.50242C144.567 8.41278 144.771 7.45241 145.177 6.62133C145.588 5.79024 146.16 5.14153 146.895 4.6752C147.633 4.20887 148.497 3.97571 149.485 3.97571C150.085 3.97571 150.667 4.07498 151.23 4.27351C151.793 4.47205 152.299 4.78371 152.747 5.20848C153.195 5.63326 153.548 6.18501 153.806 6.86373C154.065 7.53783 154.194 8.35737 154.194 9.32235V10.0565H145.738V8.50512H152.165C152.165 7.9603 152.054 7.47781 151.833 7.05765C151.611 6.63287 151.299 6.29813 150.898 6.05342C150.5 5.80871 150.034 5.68636 149.499 5.68636C148.917 5.68636 148.409 5.82949 147.975 6.11575C147.546 6.3974 147.213 6.76677 146.978 7.22386C146.747 7.67634 146.631 8.16807 146.631 8.69904V9.91104C146.631 10.6221 146.756 11.2269 147.005 11.7256C147.259 12.2242 147.612 12.6051 148.065 12.8683C148.517 13.1269 149.046 13.2562 149.651 13.2562C150.043 13.2562 150.401 13.2007 150.724 13.0899C151.048 12.9745 151.327 12.8037 151.562 12.5774C151.798 12.3512 151.978 12.0719 152.103 11.7394L154.063 12.0926C153.906 12.6698 153.624 13.1754 153.218 13.6094C152.816 14.0388 152.31 14.3735 151.701 14.6136C151.096 14.8491 150.406 14.9668 149.63 14.9668ZM156.492 14.7521V4.11422H158.479V5.84565H158.611C158.833 5.25927 159.195 4.80218 159.698 4.47436C160.202 4.14192 160.804 3.97571 161.506 3.97571C162.217 3.97571 162.813 4.14192 163.293 4.47436C163.778 4.80679 164.135 5.26389 164.366 5.84565H164.477C164.731 5.27774 165.135 4.82526 165.689 4.48821C166.243 4.14654 166.903 3.97571 167.67 3.97571C168.635 3.97571 169.422 4.27813 170.032 4.88297C170.646 5.48782 170.953 6.3997 170.953 7.61863V14.7521H168.882V7.81255C168.882 7.09227 168.686 6.57054 168.293 6.24734C167.901 5.92414 167.432 5.76254 166.887 5.76254C166.213 5.76254 165.689 5.97031 165.315 6.38585C164.941 6.79678 164.754 7.32544 164.754 7.97184V14.7521H162.69V7.68096C162.69 7.10382 162.51 6.63979 162.15 6.28889C161.79 5.93799 161.321 5.76254 160.744 5.76254C160.352 5.76254 159.989 5.86642 159.657 6.0742C159.329 6.27735 159.064 6.5613 158.86 6.92606C158.662 7.29081 158.563 7.71328 158.563 8.19346V14.7521H156.492ZM173.728 14.7521V4.11422H175.799V14.7521H173.728ZM174.774 2.47283C174.414 2.47283 174.104 2.35278 173.846 2.11269C173.592 1.86798 173.465 1.57711 173.465 1.24005C173.465 0.898386 173.592 0.607507 173.846 0.367415C174.104 0.122707 174.414 0.000353404 174.774 0.000353404C175.134 0.000353404 175.441 0.122707 175.695 0.367415C175.954 0.607507 176.083 0.898386 176.083 1.24005C176.083 1.57711 175.954 1.86798 175.695 2.11269C175.441 2.35278 175.134 2.47283 174.774 2.47283ZM180.656 8.43586V14.7521H178.585V4.11422H180.572V5.84565H180.704C180.949 5.28236 181.332 4.82988 181.854 4.48821C182.38 4.14654 183.043 3.97571 183.841 3.97571C184.566 3.97571 185.201 4.12807 185.746 4.4328C186.291 4.73292 186.713 5.18078 187.013 5.77639C187.314 6.372 187.464 7.10843 187.464 7.98569V14.7521H185.393V8.23502C185.393 7.46395 185.192 6.86142 184.79 6.42741C184.389 5.98878 183.837 5.76946 183.135 5.76946C182.655 5.76946 182.228 5.87335 181.854 6.08112C181.484 6.28889 181.191 6.59362 180.974 6.99531C180.762 7.39239 180.656 7.87257 180.656 8.43586ZM190.241 14.7521V4.11422H192.312V14.7521H190.241ZM191.287 2.47283C190.926 2.47283 190.617 2.35278 190.359 2.11269C190.105 1.86798 189.978 1.57711 189.978 1.24005C189.978 0.898386 190.105 0.607507 190.359 0.367415C190.617 0.122707 190.926 0.000353404 191.287 0.000353404C191.647 0.000353404 191.954 0.122707 192.208 0.367415C192.466 0.607507 192.596 0.898386 192.596 1.24005C192.596 1.57711 192.466 1.86798 192.208 2.11269C191.954 2.35278 191.647 2.47283 191.287 2.47283ZM201.365 7.86103V9.65478H195.077V7.86103H201.365ZM203.526 14.7521V13.2007L208.326 8.22809C208.838 7.68788 209.26 7.21463 209.593 6.80832C209.93 6.3974 210.182 6.00725 210.348 5.63788C210.514 5.26851 210.597 4.87605 210.597 4.46051C210.597 3.98956 210.486 3.58325 210.265 3.24158C210.043 2.8953 209.741 2.62981 209.357 2.44513C208.974 2.25582 208.543 2.16117 208.062 2.16117C207.554 2.16117 207.111 2.26506 206.733 2.47283C206.354 2.6806 206.063 2.97379 205.86 3.35239C205.657 3.731 205.555 4.17424 205.555 4.68213H203.512C203.512 3.81872 203.711 3.06382 204.108 2.41742C204.505 1.77103 205.05 1.27007 205.742 0.914546C206.435 0.55441 207.222 0.374341 208.104 0.374341C208.995 0.374341 209.78 0.552101 210.459 0.90762C211.142 1.25852 211.675 1.7387 212.058 2.34817C212.442 2.95301 212.633 3.63635 212.633 4.39818C212.633 4.92453 212.534 5.43934 212.335 5.94261C212.142 6.44588 211.802 7.00686 211.317 7.62555C210.833 8.23963 210.159 8.9853 209.295 9.86256L206.476 12.8129V12.9168H212.862V14.7521H203.526ZM216.879 14.8837C216.5 14.8837 216.175 14.7498 215.902 14.482C215.63 14.2096 215.494 13.8818 215.494 13.4986C215.494 13.1199 215.63 12.7967 215.902 12.529C216.175 12.2565 216.5 12.1203 216.879 12.1203C217.257 12.1203 217.583 12.2565 217.855 12.529C218.128 12.7967 218.264 13.1199 218.264 13.4986C218.264 13.7525 218.199 13.9857 218.07 14.198C217.945 14.4058 217.779 14.572 217.571 14.6967C217.364 14.8214 217.133 14.8837 216.879 14.8837ZM225.463 14.946C224.595 14.946 223.815 14.7798 223.122 14.4474C222.434 14.1103 221.885 13.6486 221.474 13.0622C221.063 12.4759 220.844 11.8064 220.816 11.0538H222.894C222.945 11.6632 223.215 12.1642 223.704 12.5567C224.193 12.9491 224.78 13.1453 225.463 13.1453C226.008 13.1453 226.49 13.0207 226.911 12.7714C227.335 12.5174 227.668 12.1688 227.908 11.7256C228.153 11.2823 228.275 10.7767 228.275 10.2088C228.275 9.6317 228.15 9.11689 227.901 8.66441C227.652 8.21193 227.308 7.85641 226.869 7.59785C226.435 7.33929 225.936 7.2077 225.373 7.20309C224.944 7.20309 224.512 7.27696 224.078 7.42471C223.644 7.57246 223.293 7.76638 223.025 8.00647L221.065 7.71559L221.862 0.568261H229.66V2.40357H223.642L223.192 6.372H223.275C223.552 6.10421 223.919 5.88028 224.376 5.70021C224.838 5.52014 225.332 5.43011 225.858 5.43011C226.721 5.43011 227.49 5.63557 228.164 6.04649C228.843 6.45742 229.376 7.0184 229.764 7.72944C230.156 8.43586 230.35 9.24848 230.346 10.1673C230.35 11.0861 230.143 11.9056 229.722 12.6259C229.307 13.3462 228.73 13.9141 227.991 14.3296C227.257 14.7406 226.414 14.946 225.463 14.946ZM239.171 6.75984V8.56052H232.882V6.75984H239.171ZM242.097 14.7521V0.568261H247.153C248.256 0.568261 249.17 0.769106 249.895 1.1708C250.62 1.57249 251.163 2.12193 251.523 2.81911C251.883 3.51169 252.063 4.29198 252.063 5.16C252.063 6.03264 251.881 6.81755 251.516 7.51474C251.156 8.20731 250.611 8.75675 249.881 9.16306C249.157 9.56475 248.245 9.7656 247.146 9.7656H243.669V7.95106H246.952C247.649 7.95106 248.215 7.83102 248.649 7.59093C249.083 7.34622 249.401 7.01378 249.604 6.59362C249.808 6.17346 249.909 5.69559 249.909 5.16C249.909 4.62442 249.808 4.14885 249.604 3.73331C249.401 3.31777 249.08 2.99226 248.642 2.75678C248.208 2.52131 247.635 2.40357 246.924 2.40357H244.237V14.7521H242.097ZM254.406 14.7521V4.11422H256.407V5.80409H256.518C256.712 5.23157 257.054 4.7814 257.543 4.45358C258.037 4.12115 258.596 3.95493 259.219 3.95493C259.348 3.95493 259.501 3.95955 259.676 3.96878C259.856 3.97802 259.997 3.98956 260.099 4.00341V5.98416C260.015 5.96108 259.868 5.93568 259.655 5.90798C259.443 5.87566 259.231 5.8595 259.018 5.8595C258.529 5.8595 258.092 5.96338 257.709 6.17116C257.331 6.37431 257.031 6.65826 256.809 7.02302C256.587 7.38315 256.476 7.79408 256.476 8.25579V14.7521H254.406ZM265.991 14.9668C264.993 14.9668 264.123 14.7383 263.38 14.2812C262.636 13.8241 262.059 13.1846 261.648 12.3627C261.237 11.5409 261.032 10.5805 261.032 9.48164C261.032 8.37815 261.237 7.41317 261.648 6.5867C262.059 5.76023 262.636 5.11845 263.38 4.66135C264.123 4.20426 264.993 3.97571 265.991 3.97571C266.988 3.97571 267.858 4.20426 268.602 4.66135C269.345 5.11845 269.922 5.76023 270.333 6.5867C270.744 7.41317 270.949 8.37815 270.949 9.48164C270.949 10.5805 270.744 11.5409 270.333 12.3627C269.922 13.1846 269.345 13.8241 268.602 14.2812C267.858 14.7383 266.988 14.9668 265.991 14.9668ZM265.998 13.2284C266.644 13.2284 267.18 13.0576 267.604 12.7159C268.029 12.3743 268.343 11.9195 268.546 11.3516C268.754 10.7837 268.858 10.1581 268.858 9.47472C268.858 8.796 268.754 8.17268 268.546 7.60478C268.343 7.03225 268.029 6.57285 267.604 6.22656C267.18 5.88028 266.644 5.70713 265.998 5.70713C265.347 5.70713 264.806 5.88028 264.377 6.22656C263.952 6.57285 263.636 7.03225 263.428 7.60478C263.225 8.17268 263.123 8.796 263.123 9.47472C263.123 10.1581 263.225 10.7837 263.428 11.3516C263.636 11.9195 263.952 12.3743 264.377 12.7159C264.806 13.0576 265.347 13.2284 265.998 13.2284Z" fill="#F0EAEA"/>
<path d="M4.92411 18.9629C4.07917 18.9629 3.35197 18.8521 2.74251 18.6305C2.13767 18.4089 1.64363 18.1157 1.26041 17.7509C0.877187 17.3862 0.590925 16.9868 0.401622 16.5528L2.18153 15.8187C2.30619 16.0218 2.47241 16.2365 2.68018 16.4628C2.89257 16.6936 3.17883 16.8898 3.53897 17.0514C3.90372 17.213 4.37236 17.2938 4.94488 17.2938C5.7298 17.2938 6.37851 17.1022 6.89101 16.719C7.40351 16.3404 7.65976 15.7356 7.65976 14.9045V12.8129H7.52817C7.40351 13.0391 7.22344 13.2908 6.98797 13.5678C6.75711 13.8448 6.43853 14.0849 6.03222 14.2881C5.62591 14.4912 5.09725 14.5928 4.44623 14.5928C3.60591 14.5928 2.8487 14.3966 2.1746 14.0041C1.50512 13.6071 0.974147 13.023 0.581691 12.2519C0.193851 11.4762 -6.83507e-05 10.5228 -6.83507e-05 9.39161C-6.83507e-05 8.26041 0.191543 7.29081 0.574765 6.48281C0.962605 5.67481 1.49358 5.05612 2.16768 4.62672C2.84178 4.19271 3.60591 3.97571 4.46008 3.97571C5.12034 3.97571 5.65361 4.08652 6.05992 4.30814C6.46623 4.52515 6.7825 4.77909 7.00874 5.06997C7.2396 5.36085 7.41736 5.6171 7.54202 5.83872H7.69439V4.11422H9.72362V14.9876C9.72362 15.9018 9.51123 16.6521 9.08646 17.2384C8.66168 17.8248 8.08685 18.2588 7.36196 18.5405C6.64168 18.8221 5.82907 18.9629 4.92411 18.9629ZM4.90333 12.8752C5.49894 12.8752 6.00221 12.7367 6.41313 12.4597C6.82868 12.178 7.14264 11.7764 7.35503 11.2546C7.57203 10.7283 7.68054 10.098 7.68054 9.36391C7.68054 8.64825 7.57434 8.01801 7.36196 7.47319C7.14957 6.92837 6.83791 6.50359 6.42698 6.19886C6.01606 5.88951 5.50818 5.73484 4.90333 5.73484C4.28002 5.73484 3.76059 5.89644 3.34505 6.21964C2.9295 6.53822 2.61554 6.97223 2.40315 7.52167C2.19538 8.07111 2.09149 8.68519 2.09149 9.36391C2.09149 10.0611 2.19769 10.6729 2.41008 11.1992C2.62246 11.7256 2.93643 12.1365 3.35197 12.432C3.77213 12.7275 4.28925 12.8752 4.90333 12.8752ZM12.5008 18.7413V4.11422H14.5231V5.83872H14.6963C14.8163 5.6171 14.9895 5.36085 15.2157 5.06997C15.4419 4.77909 15.7559 4.52515 16.1576 4.30814C16.5593 4.08652 17.0903 3.97571 17.7505 3.97571C18.6093 3.97571 19.3757 4.19271 20.0498 4.62672C20.7239 5.06073 21.2526 5.68636 21.6358 6.50359C22.0237 7.32082 22.2176 8.30427 22.2176 9.45394C22.2176 10.6036 22.026 11.5894 21.6428 12.4112C21.2595 13.2284 20.7332 13.8587 20.0637 14.3019C19.3942 14.7406 18.6301 14.9599 17.7713 14.9599C17.1249 14.9599 16.5962 14.8514 16.1853 14.6344C15.779 14.4174 15.4604 14.1634 15.2296 13.8725C14.9987 13.5817 14.8209 13.3231 14.6963 13.0969H14.5716V18.7413H12.5008ZM14.5301 9.43316C14.5301 10.1811 14.6386 10.8368 14.8556 11.4001C15.0726 11.9634 15.3865 12.4043 15.7975 12.7229C16.2084 13.0368 16.7117 13.1938 17.3073 13.1938C17.926 13.1938 18.4431 13.0299 18.8586 12.7021C19.2742 12.3697 19.5881 11.9195 19.8005 11.3516C20.0175 10.7837 20.126 10.1442 20.126 9.43316C20.126 8.73136 20.0198 8.10112 19.8074 7.54244C19.5997 6.98377 19.2857 6.54284 18.8655 6.21964C18.45 5.89644 17.9306 5.73484 17.3073 5.73484C16.707 5.73484 16.1992 5.88951 15.7836 6.19886C15.3727 6.50821 15.061 6.93991 14.8486 7.49397C14.6363 8.04802 14.5301 8.69442 14.5301 9.43316ZM29.5034 4.11422V5.77639H23.6928V4.11422H29.5034ZM25.251 1.56556H27.3218V11.6286C27.3218 12.0303 27.3819 12.3327 27.5019 12.5359C27.6219 12.7344 27.7766 12.8706 27.9659 12.9445C28.1598 13.0138 28.3699 13.0484 28.5962 13.0484C28.7624 13.0484 28.9078 13.0368 29.0325 13.0138C29.1571 12.9907 29.2541 12.9722 29.3234 12.9583L29.6973 14.669C29.5773 14.7152 29.4065 14.7613 29.1848 14.8075C28.9632 14.8583 28.6862 14.886 28.3538 14.8906C27.8089 14.8999 27.3011 14.8029 26.8301 14.5997C26.3592 14.3966 25.9782 14.0826 25.6874 13.6578C25.3965 13.2331 25.251 12.6998 25.251 12.058V1.56556ZM37.7 7.86103V9.65478H31.4115V7.86103H37.7ZM45.114 14.946C44.2459 14.946 43.4656 14.7798 42.7731 14.4474C42.0851 14.1103 41.5357 13.6486 41.1248 13.0622C40.7138 12.4759 40.4945 11.8064 40.4668 11.0538H42.5445C42.5953 11.6632 42.8654 12.1642 43.3548 12.5567C43.8443 12.9491 44.4306 13.1453 45.114 13.1453C45.6588 13.1453 46.1413 13.0207 46.5614 12.7714C46.9862 12.5174 47.3186 12.1688 47.5587 11.7256C47.8034 11.2823 47.9258 10.7767 47.9258 10.2088C47.9258 9.6317 47.8011 9.11689 47.5518 8.66441C47.3025 8.21193 46.9585 7.85641 46.5199 7.59785C46.0859 7.33929 45.5872 7.2077 45.0239 7.20309C44.5945 7.20309 44.1628 7.27696 43.7288 7.42471C43.2948 7.57246 42.9439 7.76638 42.6761 8.00647L40.7161 7.71559L41.5126 0.568261H49.3109V2.40357H43.2925L42.8423 6.372H42.9254C43.2025 6.10421 43.5695 5.88028 44.0266 5.70021C44.4883 5.52014 44.9824 5.43011 45.5087 5.43011C46.3721 5.43011 47.1409 5.63557 47.815 6.04649C48.4937 6.45742 49.027 7.0184 49.4148 7.72944C49.8073 8.43586 50.0012 9.24848 49.9966 10.1673C50.0012 11.0861 49.7934 11.9056 49.3733 12.6259C48.9577 13.3462 48.3806 13.9141 47.6418 14.3296C46.9077 14.7406 46.0651 14.946 45.114 14.946Z" fill="#F0EAEA"/>
<path d="M857.532 18.9629C856.687 18.9629 855.96 18.8521 855.351 18.6305C854.746 18.4089 854.252 18.1157 853.869 17.7509C853.485 17.3862 853.199 16.9868 853.01 16.5528L854.79 15.8187C854.914 16.0218 855.081 16.2365 855.288 16.4628C855.501 16.6936 855.787 16.8898 856.147 17.0514C856.512 17.213 856.98 17.2938 857.553 17.2938C858.338 17.2938 858.987 17.1022 859.499 16.719C860.012 16.3404 860.268 15.7356 860.268 14.9045V12.8129H860.136C860.012 13.0391 859.832 13.2908 859.596 13.5678C859.365 13.8448 859.047 14.0849 858.64 14.2881C858.234 14.4912 857.705 14.5928 857.054 14.5928C856.214 14.5928 855.457 14.3966 854.783 14.0041C854.113 13.6071 853.582 13.023 853.19 12.2519C852.802 11.4762 852.608 10.5228 852.608 9.39161C852.608 8.26041 852.8 7.29081 853.183 6.48281C853.571 5.67481 854.102 5.05612 854.776 4.62672C855.45 4.19271 856.214 3.97571 857.068 3.97571C857.728 3.97571 858.262 4.08652 858.668 4.30814C859.074 4.52515 859.391 4.77909 859.617 5.06997C859.848 5.36085 860.025 5.6171 860.15 5.83872H860.303V4.11422H862.332V14.9876C862.332 15.9018 862.119 16.6521 861.695 17.2384C861.27 17.8248 860.695 18.2588 859.97 18.5405C859.25 18.8221 858.437 18.9629 857.532 18.9629ZM857.511 12.8752C858.107 12.8752 858.61 12.7367 859.021 12.4597C859.437 12.178 859.751 11.7764 859.963 11.2546C860.18 10.7283 860.289 10.098 860.289 9.36391C860.289 8.64825 860.182 8.01801 859.97 7.47319C859.758 6.92837 859.446 6.50359 859.035 6.19886C858.624 5.88951 858.116 5.73484 857.511 5.73484C856.888 5.73484 856.369 5.89644 855.953 6.21964C855.538 6.53822 855.224 6.97223 855.011 7.52167C854.804 8.07111 854.7 8.68519 854.7 9.36391C854.7 10.0611 854.806 10.6729 855.018 11.1992C855.231 11.7256 855.545 12.1365 855.96 12.432C856.38 12.7275 856.897 12.8752 857.511 12.8752ZM865.109 18.7413V4.11422H867.131V5.83872H867.304C867.424 5.6171 867.598 5.36085 867.824 5.06997C868.05 4.77909 868.364 4.52515 868.766 4.30814C869.167 4.08652 869.698 3.97571 870.359 3.97571C871.217 3.97571 871.984 4.19271 872.658 4.62672C873.332 5.06073 873.861 5.68636 874.244 6.50359C874.632 7.32082 874.826 8.30427 874.826 9.45394C874.826 10.6036 874.634 11.5894 874.251 12.4112C873.868 13.2284 873.341 13.8587 872.672 14.3019C872.002 14.7406 871.238 14.9599 870.379 14.9599C869.733 14.9599 869.204 14.8514 868.793 14.6344C868.387 14.4174 868.069 14.1634 867.838 13.8725C867.607 13.5817 867.429 13.3231 867.304 13.0969H867.18V18.7413H865.109ZM867.138 9.43316C867.138 10.1811 867.247 10.8368 867.464 11.4001C867.681 11.9634 867.995 12.4043 868.406 12.7229C868.817 13.0368 869.32 13.1938 869.915 13.1938C870.534 13.1938 871.051 13.0299 871.467 12.7021C871.882 12.3697 872.196 11.9195 872.409 11.3516C872.626 10.7837 872.734 10.1442 872.734 9.43316C872.734 8.73136 872.628 8.10112 872.416 7.54244C872.208 6.98377 871.894 6.54284 871.474 6.21964C871.058 5.89644 870.539 5.73484 869.915 5.73484C869.315 5.73484 868.807 5.88951 868.392 6.19886C867.981 6.50821 867.669 6.93991 867.457 7.49397C867.244 8.04802 867.138 8.69442 867.138 9.43316ZM882.112 4.11422V5.77639H876.301V4.11422H882.112ZM877.859 1.56556H879.93V11.6286C879.93 12.0303 879.99 12.3327 880.11 12.5359C880.23 12.7344 880.385 12.8706 880.574 12.9445C880.768 13.0138 880.978 13.0484 881.204 13.0484C881.371 13.0484 881.516 13.0368 881.641 13.0138C881.765 12.9907 881.862 12.9722 881.931 12.9583L882.305 14.669C882.185 14.7152 882.015 14.7613 881.793 14.8075C881.571 14.8583 881.294 14.886 880.962 14.8906C880.417 14.8999 879.909 14.8029 879.438 14.5997C878.967 14.3966 878.586 14.0826 878.295 13.6578C878.005 13.2331 877.859 12.6998 877.859 12.058V1.56556ZM890.308 7.86103V9.65478H884.02V7.86103H890.308ZM897.722 14.946C896.854 14.946 896.074 14.7798 895.381 14.4474C894.693 14.1103 894.144 13.6486 893.733 13.0622C893.322 12.4759 893.103 11.8064 893.075 11.0538H895.153C895.203 11.6632 895.474 12.1642 895.963 12.5567C896.452 12.9491 897.039 13.1453 897.722 13.1453C898.267 13.1453 898.749 13.0207 899.17 12.7714C899.594 12.5174 899.927 12.1688 900.167 11.7256C900.412 11.2823 900.534 10.7767 900.534 10.2088C900.534 9.6317 900.409 9.11689 900.16 8.66441C899.911 8.21193 899.567 7.85641 899.128 7.59785C898.694 7.33929 898.195 7.2077 897.632 7.20309C897.203 7.20309 896.771 7.27696 896.337 7.42471C895.903 7.57246 895.552 7.76638 895.284 8.00647L893.324 7.71559L894.121 0.568261H901.919V2.40357H895.901L895.45 6.372H895.534C895.811 6.10421 896.178 5.88028 896.635 5.70021C897.096 5.52014 897.591 5.43011 898.117 5.43011C898.98 5.43011 899.749 5.63557 900.423 6.04649C901.102 6.45742 901.635 7.0184 902.023 7.72944C902.415 8.43586 902.609 9.24848 902.605 10.1673C902.609 11.0861 902.402 11.9056 901.981 12.6259C901.566 13.3462 900.989 13.9141 900.25 14.3296C899.516 14.7406 898.673 14.946 897.722 14.946ZM911.43 7.86103V9.65478H905.141V7.86103H911.43ZM914.19 14.7521V4.11422H916.177V5.84565H916.309C916.531 5.25927 916.893 4.80218 917.396 4.47436C917.9 4.14192 918.502 3.97571 919.204 3.97571C919.915 3.97571 920.511 4.14192 920.991 4.47436C921.476 4.80679 921.833 5.26389 922.064 5.84565H922.175C922.429 5.27774 922.833 4.82526 923.387 4.48821C923.941 4.14654 924.601 3.97571 925.368 3.97571C926.333 3.97571 927.12 4.27813 927.729 4.88297C928.344 5.48782 928.651 6.3997 928.651 7.61863V14.7521H926.58V7.81255C926.58 7.09227 926.384 6.57054 925.991 6.24734C925.599 5.92414 925.13 5.76254 924.585 5.76254C923.911 5.76254 923.387 5.97031 923.013 6.38585C922.639 6.79678 922.452 7.32544 922.452 7.97184V14.7521H920.388V7.68096C920.388 7.10382 920.208 6.63979 919.848 6.28889C919.488 5.93799 919.019 5.76254 918.442 5.76254C918.05 5.76254 917.687 5.86642 917.355 6.0742C917.027 6.27735 916.761 6.5613 916.558 6.92606C916.36 7.29081 916.26 7.71328 916.26 8.19346V14.7521H914.19ZM931.426 14.7521V4.11422H933.497V14.7521H931.426ZM932.472 2.47283C932.112 2.47283 931.802 2.35278 931.544 2.11269C931.29 1.86798 931.163 1.57711 931.163 1.24005C931.163 0.898386 931.29 0.607507 931.544 0.367415C931.802 0.122707 932.112 0.000353404 932.472 0.000353404C932.832 0.000353404 933.139 0.122707 933.393 0.367415C933.651 0.607507 933.781 0.898386 933.781 1.24005C933.781 1.57711 933.651 1.86798 933.393 2.11269C933.139 2.35278 932.832 2.47283 932.472 2.47283ZM938.353 8.43586V14.7521H936.283V4.11422H938.27V5.84565H938.402C938.647 5.28236 939.03 4.82988 939.552 4.48821C940.078 4.14654 940.741 3.97571 941.539 3.97571C942.264 3.97571 942.899 4.12807 943.444 4.4328C943.989 4.73292 944.411 5.18078 944.711 5.77639C945.011 6.372 945.161 7.10843 945.161 7.98569V14.7521H943.091V8.23502C943.091 7.46395 942.89 6.86142 942.488 6.42741C942.086 5.98878 941.535 5.76946 940.833 5.76946C940.353 5.76946 939.926 5.87335 939.552 6.08112C939.182 6.28889 938.889 6.59362 938.672 6.99531C938.46 7.39239 938.353 7.87257 938.353 8.43586ZM947.939 14.7521V4.11422H950.009V14.7521H947.939ZM948.984 2.47283C948.624 2.47283 948.315 2.35278 948.056 2.11269C947.802 1.86798 947.675 1.57711 947.675 1.24005C947.675 0.898386 947.802 0.607507 948.056 0.367415C948.315 0.122707 948.624 0.000353404 948.984 0.000353404C949.345 0.000353404 949.652 0.122707 949.906 0.367415C950.164 0.607507 950.293 0.898386 950.293 1.24005C950.293 1.57711 950.164 1.86798 949.906 2.11269C949.652 2.35278 949.345 2.47283 948.984 2.47283Z" fill="#F0EAEA"/>
</svg>
